<mxfile host="65bd71144e">
    <diagram name="Page-1" id="Xa4HiU06uu2VXl8qRVdY">
        <mxGraphModel dx="4224" dy="2979" grid="1" gridSize="10" guides="1" tooltips="1" connect="1" arrows="1" fold="1" page="1" pageScale="1" pageWidth="850" pageHeight="1100" math="0" shadow="0">
            <root>
                <mxCell id="0"/>
                <mxCell id="1" parent="0"/>
                <mxCell id="of-Or63fq2WvLNfduHY4-37" value="&lt;font data-font-src=&quot;https://fonts.googleapis.com/css?family=Sarabun&quot; face=&quot;Sarabun&quot;&gt;โจทย์ปัญหา&lt;/font&gt;" style="swimlane;whiteSpace=wrap;html=1;" parent="1" vertex="1">
                    <mxGeometry x="-2040" y="-2120" width="630" height="350" as="geometry"/>
                </mxCell>
                <mxCell id="of-Or63fq2WvLNfduHY4-38" value="&lt;font data-font-src=&quot;https://fonts.googleapis.com/css?family=Sarabun&quot; face=&quot;Sarabun&quot; style=&quot;font-size: 14px;&quot;&gt;จงเขียน Flowchart เพื่อแสดงขั้นตอนการทำงาน ของเครื่องขายน้ำอัตโนมัติที่ชื่อว่า &quot;ตะพาบลอย&quot;&lt;br&gt;โดยจะต้องมีสินค้าดังนี้&lt;br&gt;&lt;u&gt;ประเภทน้ำ&lt;span style=&quot;white-space: pre;&quot;&gt;&#x9;&lt;/span&gt;&lt;span style=&quot;white-space: pre;&quot;&gt;&#x9;&lt;/span&gt;&lt;span style=&quot;white-space: pre;&quot;&gt;&#x9;&lt;/span&gt;&lt;span style=&quot;white-space: pre;&quot;&gt;&#x9;&lt;/span&gt;&lt;span style=&quot;white-space: pre;&quot;&gt;&#x9;&lt;/span&gt;&lt;span style=&quot;white-space: pre;&quot;&gt;&#x9;&lt;span style=&quot;white-space: pre;&quot;&gt;&#x9;&lt;/span&gt;ข&lt;/span&gt;นม&lt;/u&gt;&lt;br&gt;&lt;span style=&quot;white-space: pre;&quot;&gt;&#x9;&lt;/span&gt;- โค้ก กระป๋องละ 10 บาท&lt;span style=&quot;white-space: pre;&quot;&gt;&#x9;&lt;/span&gt;&lt;span style=&quot;white-space: pre;&quot;&gt;&#x9;&lt;/span&gt;&lt;span style=&quot;white-space: pre;&quot;&gt;&#x9;&lt;/span&gt;&lt;span style=&quot;white-space: pre;&quot;&gt;&#x9;&lt;/span&gt;- เมล็ดทานตะวัน 13 บาท&lt;br&gt;&lt;span style=&quot;white-space: pre;&quot;&gt;&#x9;&lt;/span&gt;- น้ำเขียว กระป๋องละ 12 บาท&lt;span style=&quot;white-space: pre;&quot;&gt;&#x9;&lt;/span&gt;&lt;span style=&quot;white-space: pre;&quot;&gt;&#x9;&lt;/span&gt;&lt;span style=&quot;white-space: pre;&quot;&gt;&#x9;&lt;/span&gt;- ถั่วแปบ 20 บาท&lt;br&gt;&lt;span style=&quot;white-space: pre;&quot;&gt;&#x9;&lt;/span&gt;- อเมริกาโน่ 30 บาท&lt;span style=&quot;white-space: pre;&quot;&gt;&#x9;&lt;/span&gt;&lt;span style=&quot;white-space: pre;&quot;&gt;&#x9;&lt;/span&gt;&lt;span style=&quot;white-space: pre;&quot;&gt;&#x9;&lt;/span&gt;&lt;span style=&quot;white-space: pre;&quot;&gt;&#x9;&lt;/span&gt;&lt;span style=&quot;white-space: pre;&quot;&gt;&#x9;&lt;/span&gt;- จิ้นส้มหมก 15 บาท&lt;br&gt;&lt;span style=&quot;white-space: pre;&quot;&gt;&#x9;&lt;/span&gt;- ลาเต้ หวานเจี๊ยบ 35 บาท&lt;span style=&quot;white-space: pre;&quot;&gt;&#x9;&lt;/span&gt;&lt;br&gt;&lt;br&gt;&lt;u&gt;สิ่งที่ระบบควรจะทำได้&lt;/u&gt;&lt;br&gt;&lt;span style=&quot;white-space: pre;&quot;&gt;&#x9;&lt;/span&gt;- ลูกค้าเลือกสินค้า, ระบบจะต้องรวมยอดขาย และรวมรายการสินค้าทั้งหมดที่ลูกค้าเลือก&lt;br&gt;&lt;span style=&quot;white-space: pre;&quot;&gt;&#x9;&lt;/span&gt;- สรุปยอดว่าเหลือเงินในตู้อีกเท่าไหร่ เหลือเหรียญอะไรบ้าง? ธนบัตรอะไรบ้าง? อย่างละเท่าไหร่?&lt;br&gt;&lt;br&gt;&lt;br&gt;&lt;/font&gt;" style="text;html=1;align=left;verticalAlign=middle;resizable=0;points=[];autosize=1;strokeColor=none;fillColor=none;fontSize=14;" parent="of-Or63fq2WvLNfduHY4-37" vertex="1">
                    <mxGeometry x="40" y="70" width="580" height="240" as="geometry"/>
                </mxCell>
                <mxCell id="of-Or63fq2WvLNfduHY4-1" value="ทบทวนสัญลักษณ์" style="swimlane;fontFamily=Sarabun;fontSource=https%3A%2F%2Ffonts.googleapis.com%2Fcss%3Ffamily%3DSarabun;" parent="1" vertex="1">
                    <mxGeometry x="-2263" y="-1729.99" width="640" height="240" as="geometry"/>
                </mxCell>
                <mxCell id="of-Or63fq2WvLNfduHY4-2" value="&lt;font data-font-src=&quot;https://fonts.googleapis.com/css?family=Sarabun&quot; face=&quot;Sarabun&quot;&gt;เริ่มต้น&lt;/font&gt;" style="ellipse;whiteSpace=wrap;html=1;" parent="of-Or63fq2WvLNfduHY4-1" vertex="1">
                    <mxGeometry x="20" y="40" width="130" height="30" as="geometry"/>
                </mxCell>
                <mxCell id="of-Or63fq2WvLNfduHY4-3" value="" style="endArrow=classic;html=1;rounded=0;" parent="of-Or63fq2WvLNfduHY4-1" edge="1">
                    <mxGeometry width="50" height="50" relative="1" as="geometry">
                        <mxPoint x="84.5" y="70" as="sourcePoint"/>
                        <mxPoint x="84.5" y="120" as="targetPoint"/>
                    </mxGeometry>
                </mxCell>
                <mxCell id="of-Or63fq2WvLNfduHY4-4" value="&lt;font face=&quot;Sarabun&quot;&gt;สิ้นสุด&lt;/font&gt;" style="ellipse;whiteSpace=wrap;html=1;" parent="of-Or63fq2WvLNfduHY4-1" vertex="1">
                    <mxGeometry x="150" y="90" width="130" height="30" as="geometry"/>
                </mxCell>
                <mxCell id="of-Or63fq2WvLNfduHY4-5" value="" style="endArrow=classic;html=1;rounded=0;" parent="of-Or63fq2WvLNfduHY4-1" edge="1">
                    <mxGeometry width="50" height="50" relative="1" as="geometry">
                        <mxPoint x="214.5" y="40" as="sourcePoint"/>
                        <mxPoint x="214.5" y="90" as="targetPoint"/>
                    </mxGeometry>
                </mxCell>
                <mxCell id="of-Or63fq2WvLNfduHY4-6" value="กระบวนการ" style="rounded=0;whiteSpace=wrap;html=1;fontFamily=Sarabun;fontSource=https%3A%2F%2Ffonts.googleapis.com%2Fcss%3Ffamily%3DSarabun;" parent="of-Or63fq2WvLNfduHY4-1" vertex="1">
                    <mxGeometry x="320" y="70" width="120" height="30" as="geometry"/>
                </mxCell>
                <mxCell id="of-Or63fq2WvLNfduHY4-7" value="" style="endArrow=classic;html=1;rounded=0;" parent="of-Or63fq2WvLNfduHY4-1" edge="1">
                    <mxGeometry width="50" height="50" relative="1" as="geometry">
                        <mxPoint x="379" y="40" as="sourcePoint"/>
                        <mxPoint x="379.5" y="70" as="targetPoint"/>
                    </mxGeometry>
                </mxCell>
                <mxCell id="of-Or63fq2WvLNfduHY4-8" value="" style="endArrow=classic;html=1;rounded=0;" parent="of-Or63fq2WvLNfduHY4-1" edge="1">
                    <mxGeometry width="50" height="50" relative="1" as="geometry">
                        <mxPoint x="379.75" y="100" as="sourcePoint"/>
                        <mxPoint x="380.25" y="130" as="targetPoint"/>
                    </mxGeometry>
                </mxCell>
                <mxCell id="of-Or63fq2WvLNfduHY4-9" value="ประโยคเงื่อนไข" style="rhombus;whiteSpace=wrap;html=1;fontFamily=Sarabun;fontSource=https%3A%2F%2Ffonts.googleapis.com%2Fcss%3Ffamily%3DSarabun;" parent="of-Or63fq2WvLNfduHY4-1" vertex="1">
                    <mxGeometry x="490" y="60" width="100" height="60" as="geometry"/>
                </mxCell>
                <mxCell id="of-Or63fq2WvLNfduHY4-10" value="" style="endArrow=classic;html=1;rounded=0;" parent="of-Or63fq2WvLNfduHY4-1" edge="1">
                    <mxGeometry width="50" height="50" relative="1" as="geometry">
                        <mxPoint x="539.71" y="30" as="sourcePoint"/>
                        <mxPoint x="540.21" y="60" as="targetPoint"/>
                    </mxGeometry>
                </mxCell>
                <mxCell id="of-Or63fq2WvLNfduHY4-11" value="" style="endArrow=classic;html=1;rounded=0;" parent="of-Or63fq2WvLNfduHY4-1" edge="1">
                    <mxGeometry width="50" height="50" relative="1" as="geometry">
                        <mxPoint x="539.71" y="120" as="sourcePoint"/>
                        <mxPoint x="540" y="175" as="targetPoint"/>
                    </mxGeometry>
                </mxCell>
                <mxCell id="of-Or63fq2WvLNfduHY4-12" value="จริง" style="edgeLabel;html=1;align=center;verticalAlign=middle;resizable=0;points=[];fontFamily=Sarabun;fontSource=https%3A%2F%2Ffonts.googleapis.com%2Fcss%3Ffamily%3DSarabun;" parent="of-Or63fq2WvLNfduHY4-11" vertex="1" connectable="0">
                    <mxGeometry x="-0.4142" y="-1" relative="1" as="geometry">
                        <mxPoint as="offset"/>
                    </mxGeometry>
                </mxCell>
                <mxCell id="of-Or63fq2WvLNfduHY4-13" value="" style="endArrow=classic;html=1;rounded=0;exitX=1;exitY=0.5;exitDx=0;exitDy=0;" parent="of-Or63fq2WvLNfduHY4-1" source="of-Or63fq2WvLNfduHY4-9" edge="1">
                    <mxGeometry width="50" height="50" relative="1" as="geometry">
                        <mxPoint x="620" y="95" as="sourcePoint"/>
                        <mxPoint x="610" y="175" as="targetPoint"/>
                        <Array as="points">
                            <mxPoint x="610" y="90"/>
                        </Array>
                    </mxGeometry>
                </mxCell>
                <mxCell id="of-Or63fq2WvLNfduHY4-14" value="&lt;font data-font-src=&quot;https://fonts.googleapis.com/css?family=Sarabun&quot; face=&quot;Sarabun&quot;&gt;เท็จ&lt;/font&gt;" style="edgeLabel;html=1;align=center;verticalAlign=middle;resizable=0;points=[];" parent="of-Or63fq2WvLNfduHY4-13" vertex="1" connectable="0">
                    <mxGeometry x="-0.0019" y="-2" relative="1" as="geometry">
                        <mxPoint as="offset"/>
                    </mxGeometry>
                </mxCell>
                <mxCell id="of-Or63fq2WvLNfduHY4-15" value="&lt;font data-font-src=&quot;https://fonts.googleapis.com/css?family=Sarabun&quot; face=&quot;Sarabun&quot;&gt;ฟังก์ชัน/โมดูล&lt;/font&gt;" style="shape=process;whiteSpace=wrap;html=1;backgroundOutline=1;" parent="of-Or63fq2WvLNfduHY4-1" vertex="1">
                    <mxGeometry x="25" y="180" width="120" height="30" as="geometry"/>
                </mxCell>
                <mxCell id="of-Or63fq2WvLNfduHY4-16" value="" style="endArrow=classic;html=1;rounded=0;" parent="of-Or63fq2WvLNfduHY4-1" edge="1">
                    <mxGeometry width="50" height="50" relative="1" as="geometry">
                        <mxPoint x="84.70999999999998" y="150" as="sourcePoint"/>
                        <mxPoint x="85.20999999999998" y="180" as="targetPoint"/>
                    </mxGeometry>
                </mxCell>
                <mxCell id="of-Or63fq2WvLNfduHY4-17" value="" style="endArrow=classic;html=1;rounded=0;" parent="of-Or63fq2WvLNfduHY4-1" edge="1">
                    <mxGeometry width="50" height="50" relative="1" as="geometry">
                        <mxPoint x="84.70999999999998" y="210" as="sourcePoint"/>
                        <mxPoint x="85.20999999999998" y="240" as="targetPoint"/>
                    </mxGeometry>
                </mxCell>
                <mxCell id="of-Or63fq2WvLNfduHY4-18" value="" style="strokeWidth=2;html=1;shape=mxgraph.flowchart.start_2;whiteSpace=wrap;" parent="of-Or63fq2WvLNfduHY4-1" vertex="1">
                    <mxGeometry x="205" y="185" width="20" height="20" as="geometry"/>
                </mxCell>
                <mxCell id="of-Or63fq2WvLNfduHY4-19" value="" style="endArrow=classic;html=1;rounded=0;" parent="of-Or63fq2WvLNfduHY4-1" edge="1">
                    <mxGeometry width="50" height="50" relative="1" as="geometry">
                        <mxPoint x="214.70999999999998" y="155" as="sourcePoint"/>
                        <mxPoint x="215.20999999999998" y="185" as="targetPoint"/>
                    </mxGeometry>
                </mxCell>
                <mxCell id="of-Or63fq2WvLNfduHY4-20" value="" style="endArrow=classic;html=1;rounded=0;entryX=0;entryY=0.5;entryDx=0;entryDy=0;entryPerimeter=0;" parent="of-Or63fq2WvLNfduHY4-1" target="of-Or63fq2WvLNfduHY4-18" edge="1">
                    <mxGeometry width="50" height="50" relative="1" as="geometry">
                        <mxPoint x="189.99999999999997" y="155" as="sourcePoint"/>
                        <mxPoint x="190.49999999999997" y="185" as="targetPoint"/>
                        <Array as="points">
                            <mxPoint x="190" y="180"/>
                        </Array>
                    </mxGeometry>
                </mxCell>
                <mxCell id="of-Or63fq2WvLNfduHY4-21" value="" style="endArrow=classic;html=1;rounded=0;entryX=1;entryY=0.5;entryDx=0;entryDy=0;entryPerimeter=0;" parent="of-Or63fq2WvLNfduHY4-1" target="of-Or63fq2WvLNfduHY4-18" edge="1">
                    <mxGeometry width="50" height="50" relative="1" as="geometry">
                        <mxPoint x="239.99999999999997" y="155" as="sourcePoint"/>
                        <mxPoint x="240.49999999999997" y="185" as="targetPoint"/>
                        <Array as="points">
                            <mxPoint x="240" y="180"/>
                        </Array>
                    </mxGeometry>
                </mxCell>
                <mxCell id="of-Or63fq2WvLNfduHY4-22" value="" style="endArrow=classic;html=1;rounded=0;" parent="of-Or63fq2WvLNfduHY4-1" edge="1">
                    <mxGeometry width="50" height="50" relative="1" as="geometry">
                        <mxPoint x="214.70999999999998" y="205" as="sourcePoint"/>
                        <mxPoint x="215.20999999999998" y="235" as="targetPoint"/>
                    </mxGeometry>
                </mxCell>
                <mxCell id="of-Or63fq2WvLNfduHY4-23" value="&lt;font data-font-src=&quot;https://fonts.googleapis.com/css?family=Sarabun&quot; face=&quot;Sarabun&quot;&gt;ตัวเชื่อม&lt;/font&gt;" style="text;html=1;align=center;verticalAlign=middle;resizable=0;points=[];autosize=1;strokeColor=none;fillColor=none;" parent="of-Or63fq2WvLNfduHY4-1" vertex="1">
                    <mxGeometry x="220" y="190" width="60" height="30" as="geometry"/>
                </mxCell>
                <mxCell id="of-Or63fq2WvLNfduHY4-24" value="" style="endArrow=classic;html=1;rounded=0;" parent="of-Or63fq2WvLNfduHY4-1" edge="1">
                    <mxGeometry width="50" height="50" relative="1" as="geometry">
                        <mxPoint x="353.71" y="165" as="sourcePoint"/>
                        <mxPoint x="354.21" y="195" as="targetPoint"/>
                    </mxGeometry>
                </mxCell>
                <mxCell id="of-Or63fq2WvLNfduHY4-25" value="" style="verticalLabelPosition=bottom;verticalAlign=top;html=1;shape=offPageConnector;rounded=0;size=0.5;" parent="of-Or63fq2WvLNfduHY4-1" vertex="1">
                    <mxGeometry x="339" y="195" width="30" height="30" as="geometry"/>
                </mxCell>
                <mxCell id="of-Or63fq2WvLNfduHY4-26" value="" style="endArrow=classic;html=1;rounded=0;" parent="of-Or63fq2WvLNfduHY4-1" edge="1">
                    <mxGeometry width="50" height="50" relative="1" as="geometry">
                        <mxPoint x="405.71" y="195" as="sourcePoint"/>
                        <mxPoint x="406.21" y="225" as="targetPoint"/>
                    </mxGeometry>
                </mxCell>
                <mxCell id="of-Or63fq2WvLNfduHY4-27" value="" style="verticalLabelPosition=bottom;verticalAlign=top;html=1;shape=offPageConnector;rounded=0;size=0.5;" parent="of-Or63fq2WvLNfduHY4-1" vertex="1">
                    <mxGeometry x="391" y="165" width="30" height="30" as="geometry"/>
                </mxCell>
                <mxCell id="of-Or63fq2WvLNfduHY4-28" value="หน้าต่อไป" style="text;html=1;align=center;verticalAlign=middle;resizable=0;points=[];autosize=1;strokeColor=none;fillColor=none;fontFamily=Sarabun;fontSource=https%3A%2F%2Ffonts.googleapis.com%2Fcss%3Ffamily%3DSarabun;" parent="of-Or63fq2WvLNfduHY4-1" vertex="1">
                    <mxGeometry x="345" y="220" width="70" height="30" as="geometry"/>
                </mxCell>
                <mxCell id="of-Or63fq2WvLNfduHY4-29" value="ก" style="text;html=1;align=center;verticalAlign=middle;resizable=0;points=[];autosize=1;strokeColor=none;fillColor=none;fontFamily=Sarabun;fontSource=https%3A%2F%2Ffonts.googleapis.com%2Fcss%3Ffamily%3DSarabun;" parent="of-Or63fq2WvLNfduHY4-1" vertex="1">
                    <mxGeometry x="339" y="190" width="30" height="30" as="geometry"/>
                </mxCell>
                <mxCell id="of-Or63fq2WvLNfduHY4-30" value="ก" style="text;html=1;align=center;verticalAlign=middle;resizable=0;points=[];autosize=1;strokeColor=none;fillColor=none;fontFamily=Sarabun;fontSource=https%3A%2F%2Ffonts.googleapis.com%2Fcss%3Ffamily%3DSarabun;" parent="of-Or63fq2WvLNfduHY4-1" vertex="1">
                    <mxGeometry x="391" y="160" width="30" height="30" as="geometry"/>
                </mxCell>
                <mxCell id="of-Or63fq2WvLNfduHY4-31" value="แสดงผล/รับค่า" style="shape=parallelogram;perimeter=parallelogramPerimeter;whiteSpace=wrap;html=1;fixedSize=1;fontFamily=Sarabun;fontSource=https%3A%2F%2Ffonts.googleapis.com%2Fcss%3Ffamily%3DSarabun;" parent="of-Or63fq2WvLNfduHY4-1" vertex="1">
                    <mxGeometry x="450" y="210" width="120" height="30" as="geometry"/>
                </mxCell>
                <mxCell id="of-Or63fq2WvLNfduHY4-32" value="" style="endArrow=classic;html=1;rounded=0;" parent="of-Or63fq2WvLNfduHY4-1" edge="1">
                    <mxGeometry width="50" height="50" relative="1" as="geometry">
                        <mxPoint x="509.71" y="180" as="sourcePoint"/>
                        <mxPoint x="510.21" y="210" as="targetPoint"/>
                    </mxGeometry>
                </mxCell>
                <mxCell id="of-Or63fq2WvLNfduHY4-33" value="" style="endArrow=classic;html=1;rounded=0;" parent="of-Or63fq2WvLNfduHY4-1" edge="1">
                    <mxGeometry width="50" height="50" relative="1" as="geometry">
                        <mxPoint x="509.71" y="240" as="sourcePoint"/>
                        <mxPoint x="510.21" y="270" as="targetPoint"/>
                    </mxGeometry>
                </mxCell>
                <mxCell id="288" value="" style="edgeStyle=none;html=1;" parent="1" source="of-Or63fq2WvLNfduHY4-35" target="284" edge="1">
                    <mxGeometry relative="1" as="geometry"/>
                </mxCell>
                <mxCell id="of-Or63fq2WvLNfduHY4-35" value="&lt;font data-font-src=&quot;https://fonts.googleapis.com/css?family=Sarabun&quot; face=&quot;Sarabun&quot;&gt;เริ่มต้น&lt;/font&gt;" style="ellipse;whiteSpace=wrap;html=1;fontStyle=0" parent="1" vertex="1">
                    <mxGeometry x="-1511" y="-1700" width="130" height="30" as="geometry"/>
                </mxCell>
                <mxCell id="126" value="" style="edgeStyle=none;html=1;" parent="1" source="of-Or63fq2WvLNfduHY4-39" target="of-Or63fq2WvLNfduHY4-103" edge="1">
                    <mxGeometry relative="1" as="geometry"/>
                </mxCell>
                <mxCell id="of-Or63fq2WvLNfduHY4-39" value="กำหนดตัวแปร&lt;div&gt;&lt;span style=&quot;font-family: Sarabun; font-size: 14px; text-align: left; text-wrap-mode: nowrap;&quot;&gt;&amp;nbsp; &amp;nbsp; &amp;nbsp;โค้ก=0,&amp;nbsp;&lt;/span&gt;&lt;span style=&quot;font-family: Sarabun; font-size: 14px; text-align: left; text-wrap-mode: nowrap;&quot;&gt;ทานตะวัน=0,&lt;/span&gt;&lt;br style=&quot;font-family: Sarabun; font-size: 14px; text-align: left; text-wrap-mode: nowrap;&quot;&gt;&lt;span style=&quot;font-family: Sarabun; font-size: 14px; text-align: left; text-wrap-mode: nowrap;&quot;&gt;น้ำเขียว=0,&amp;nbsp;&lt;/span&gt;&lt;span style=&quot;font-family: Sarabun; font-size: 14px; text-align: left; text-wrap-mode: nowrap;&quot;&gt;ถั่ว=0,&lt;/span&gt;&lt;span style=&quot;font-family: Sarabun; font-size: 14px; text-align: left; text-wrap-mode: nowrap;&quot;&gt;ลาเต้=0,&lt;/span&gt;&lt;br style=&quot;font-family: Sarabun; font-size: 14px; text-align: left; text-wrap-mode: nowrap;&quot;&gt;&lt;span style=&quot;font-family: Sarabun; font-size: 14px; text-align: left; text-wrap-mode: nowrap;&quot;&gt;อเมริ=0,&amp;nbsp;&lt;/span&gt;&lt;span style=&quot;font-family: Sarabun; font-size: 14px; text-align: left; text-wrap-mode: nowrap;&quot;&gt;จิ้นส้ม=&lt;/span&gt;&lt;span style=&quot;font-family: Sarabun; font-size: 14px; text-align: left; text-wrap-mode: nowrap; background-color: transparent; color: light-dark(rgb(0, 0, 0), rgb(255, 255, 255));&quot;&gt;0,ราคารวม&lt;/span&gt;&lt;/div&gt;" style="whiteSpace=wrap;html=1;fontStyle=0" parent="1" vertex="1">
                    <mxGeometry x="-1535" y="-1280" width="180" height="70" as="geometry"/>
                </mxCell>
                <mxCell id="WRIfh3sDyCiLUNuFMf4n-103" value="" style="edgeStyle=orthogonalEdgeStyle;rounded=0;orthogonalLoop=1;jettySize=auto;html=1;" parent="1" source="of-Or63fq2WvLNfduHY4-50" target="of-Or63fq2WvLNfduHY4-52" edge="1">
                    <mxGeometry relative="1" as="geometry"/>
                </mxCell>
                <mxCell id="of-Or63fq2WvLNfduHY4-50" value="&lt;span&gt;ลูกค้าสัมผัสหน้าจอ&lt;/span&gt;" style="whiteSpace=wrap;html=1;fontStyle=0" parent="1" vertex="1">
                    <mxGeometry x="-1540" y="-1090" width="190" height="40" as="geometry"/>
                </mxCell>
                <mxCell id="WRIfh3sDyCiLUNuFMf4n-97" value="" style="edgeStyle=orthogonalEdgeStyle;rounded=0;orthogonalLoop=1;jettySize=auto;html=1;entryX=0.5;entryY=0;entryDx=0;entryDy=0;" parent="1" source="of-Or63fq2WvLNfduHY4-52" target="of-Or63fq2WvLNfduHY4-54" edge="1">
                    <mxGeometry relative="1" as="geometry">
                        <mxPoint x="-1445" y="-870" as="targetPoint"/>
                    </mxGeometry>
                </mxCell>
                <mxCell id="of-Or63fq2WvLNfduHY4-52" value="&lt;div&gt;&lt;br&gt;&lt;/div&gt;&lt;div&gt;&lt;span style=&quot;background-color: transparent; color: light-dark(rgb(0, 0, 0), rgb(255, 255, 255));&quot;&gt;แสดงเมณูประเภทน้ำ&lt;/span&gt;&lt;/div&gt;&lt;div&gt;และประเภทขนม&lt;br&gt;&lt;div&gt;&lt;br&gt;&lt;/div&gt;&lt;/div&gt;" style="shape=parallelogram;perimeter=parallelogramPerimeter;whiteSpace=wrap;html=1;fixedSize=1;" parent="1" vertex="1">
                    <mxGeometry x="-1510" y="-1010" width="130" height="40" as="geometry"/>
                </mxCell>
                <mxCell id="of-Or63fq2WvLNfduHY4-61" value="" style="edgeStyle=orthogonalEdgeStyle;rounded=0;orthogonalLoop=1;jettySize=auto;html=1;entryX=0.5;entryY=0;entryDx=0;entryDy=0;" parent="1" source="of-Or63fq2WvLNfduHY4-54" target="of-Or63fq2WvLNfduHY4-60" edge="1">
                    <mxGeometry relative="1" as="geometry"/>
                </mxCell>
                <mxCell id="of-Or63fq2WvLNfduHY4-64" value="ประเภทขนม" style="edgeLabel;html=1;align=center;verticalAlign=middle;resizable=0;points=[];" parent="of-Or63fq2WvLNfduHY4-61" vertex="1" connectable="0">
                    <mxGeometry x="-0.0852" y="1" relative="1" as="geometry">
                        <mxPoint as="offset"/>
                    </mxGeometry>
                </mxCell>
                <mxCell id="of-Or63fq2WvLNfduHY4-63" value="" style="edgeStyle=orthogonalEdgeStyle;rounded=0;orthogonalLoop=1;jettySize=auto;html=1;entryX=0.5;entryY=0;entryDx=0;entryDy=0;exitX=1;exitY=0.5;exitDx=0;exitDy=0;" parent="1" source="of-Or63fq2WvLNfduHY4-54" target="of-Or63fq2WvLNfduHY4-62" edge="1">
                    <mxGeometry relative="1" as="geometry">
                        <mxPoint x="-1250" y="-840" as="sourcePoint"/>
                        <mxPoint x="-1055" y="-840" as="targetPoint"/>
                    </mxGeometry>
                </mxCell>
                <mxCell id="of-Or63fq2WvLNfduHY4-65" value="ประเภทน้ำ" style="edgeLabel;html=1;align=center;verticalAlign=middle;resizable=0;points=[];" parent="of-Or63fq2WvLNfduHY4-63" vertex="1" connectable="0">
                    <mxGeometry x="-0.2111" y="1" relative="1" as="geometry">
                        <mxPoint as="offset"/>
                    </mxGeometry>
                </mxCell>
                <mxCell id="of-Or63fq2WvLNfduHY4-54" value="เลือกประเภทน้ำ&lt;div&gt;หรือประเภทขนม&lt;/div&gt;" style="rhombus;whiteSpace=wrap;html=1;" parent="1" vertex="1">
                    <mxGeometry x="-1495" y="-890" width="100" height="90" as="geometry"/>
                </mxCell>
                <mxCell id="of-Or63fq2WvLNfduHY4-67" value="" style="edgeStyle=orthogonalEdgeStyle;rounded=0;orthogonalLoop=1;jettySize=auto;html=1;" parent="1" source="of-Or63fq2WvLNfduHY4-60" target="of-Or63fq2WvLNfduHY4-66" edge="1">
                    <mxGeometry relative="1" as="geometry"/>
                </mxCell>
                <mxCell id="of-Or63fq2WvLNfduHY4-60" value="&lt;font&gt;แสดง&lt;/font&gt;&lt;div&gt;&lt;font&gt;&lt;span style=&quot;font-family: Sarabun; text-align: left; text-wrap-mode: nowrap;&quot;&gt;- เมล็ดทานตะวัน 13 บาท&amp;nbsp;&lt;/span&gt;&lt;br style=&quot;font-family: Sarabun; text-align: left; text-wrap-mode: nowrap;&quot;&gt;&lt;span style=&quot;font-family: Sarabun; text-align: left; text-wrap-mode: nowrap;&quot;&gt;- ถั่วแปบ 20 บาท&lt;/span&gt;&lt;br style=&quot;font-family: Sarabun; text-align: left; text-wrap-mode: nowrap;&quot;&gt;&lt;span style=&quot;font-family: Sarabun; text-align: left; text-wrap-mode: nowrap;&quot;&gt;- จิ้นส้มหมก 15 บาท&lt;/span&gt;&lt;/font&gt;&lt;/div&gt;" style="shape=parallelogram;perimeter=parallelogramPerimeter;whiteSpace=wrap;html=1;fixedSize=1;fontSize=10;" parent="1" vertex="1">
                    <mxGeometry x="-1748" y="-810" width="170" height="57.19" as="geometry"/>
                </mxCell>
                <mxCell id="of-Or63fq2WvLNfduHY4-110" value="" style="edgeStyle=orthogonalEdgeStyle;rounded=0;orthogonalLoop=1;jettySize=auto;html=1;" parent="1" source="of-Or63fq2WvLNfduHY4-62" target="of-Or63fq2WvLNfduHY4-68" edge="1">
                    <mxGeometry relative="1" as="geometry"/>
                </mxCell>
                <mxCell id="of-Or63fq2WvLNfduHY4-62" value="&lt;font&gt;แสดง&lt;/font&gt;&lt;div&gt;&lt;span style=&quot;font-family: Sarabun; text-align: left; text-wrap-mode: nowrap;&quot;&gt;&amp;nbsp; &amp;nbsp; &amp;nbsp; &amp;nbsp; &amp;nbsp; &amp;nbsp; &amp;nbsp; &amp;nbsp; - โค้ก กระป๋องละ 10 บาท&lt;/span&gt;&lt;span style=&quot;font-family: Sarabun; text-align: left; white-space: pre;&quot;&gt;&#x9;&lt;/span&gt;&lt;span style=&quot;font-family: Sarabun; text-align: left; white-space: pre;&quot;&gt;&#x9;&lt;/span&gt;&lt;span style=&quot;font-family: Sarabun; text-align: left; white-space: pre;&quot;&gt;&#x9;&lt;/span&gt;&lt;span style=&quot;font-family: Sarabun; text-align: left; white-space: pre;&quot;&gt;&#x9;&lt;/span&gt;&lt;br style=&quot;font-family: Sarabun; text-align: left; text-wrap-mode: nowrap;&quot;&gt;&lt;span style=&quot;font-family: Sarabun; text-align: left; text-wrap-mode: nowrap;&quot;&gt;&amp;nbsp; &lt;span style=&quot;white-space: pre;&quot;&gt;&#x9;&lt;/span&gt;&lt;span style=&quot;white-space: pre;&quot;&gt;&#x9;&lt;/span&gt;- น้ำเขียว กระป๋องละ 12 บาท&lt;/span&gt;&lt;span style=&quot;font-family: Sarabun; text-align: left; white-space: pre;&quot;&gt;&#x9;&lt;/span&gt;&lt;span style=&quot;font-family: Sarabun; text-align: left; white-space: pre;&quot;&gt;&#x9;&lt;/span&gt;&lt;span style=&quot;font-family: Sarabun; text-align: left; white-space: pre;&quot;&gt;&#x9;&lt;/span&gt;&lt;br style=&quot;font-family: Sarabun; text-align: left; text-wrap-mode: nowrap;&quot;&gt;&lt;span style=&quot;font-family: Sarabun; text-align: left; text-wrap-mode: nowrap;&quot;&gt;&lt;span style=&quot;white-space: pre;&quot;&gt;&#x9;&lt;/span&gt;&lt;span style=&quot;white-space: pre;&quot;&gt;&#x9;&lt;/span&gt;- อเมริกาโน่ 30 บาท&lt;/span&gt;&lt;span style=&quot;font-family: Sarabun; text-align: left; white-space: pre;&quot;&gt;&#x9;&lt;/span&gt;&lt;span style=&quot;font-family: Sarabun; text-align: left; white-space: pre;&quot;&gt;&#x9;&lt;/span&gt;&lt;span style=&quot;font-family: Sarabun; text-align: left; white-space: pre;&quot;&gt;&#x9;&lt;/span&gt;&lt;span style=&quot;font-family: Sarabun; text-align: left; white-space: pre;&quot;&gt;&#x9;&lt;/span&gt;&lt;span style=&quot;font-family: Sarabun; text-align: left; white-space: pre;&quot;&gt;&#x9;&lt;/span&gt;&lt;/div&gt;&lt;div style=&quot;text-align: center;&quot;&gt;&lt;span style=&quot;background-color: transparent; color: light-dark(rgb(0, 0, 0), rgb(255, 255, 255)); text-align: left;&quot;&gt;&amp;nbsp; &amp;nbsp;&lt;/span&gt;&lt;span style=&quot;background-color: transparent; color: light-dark(rgb(0, 0, 0), rgb(255, 255, 255)); text-wrap-mode: nowrap; font-family: Sarabun; text-align: left;&quot;&gt;- ลาเต้ หวานเจี๊ยบ 35 บาท&lt;/span&gt;&lt;span style=&quot;background-color: transparent; color: light-dark(rgb(0, 0, 0), rgb(255, 255, 255)); font-family: Sarabun; text-align: left; white-space: pre;&quot;&gt;&#x9;&lt;/span&gt;&lt;/div&gt;" style="shape=parallelogram;perimeter=parallelogramPerimeter;whiteSpace=wrap;html=1;fixedSize=1;fontSize=10;" parent="1" vertex="1">
                    <mxGeometry x="-1175" y="-811.4000000000001" width="180" height="63.59" as="geometry"/>
                </mxCell>
                <mxCell id="of-Or63fq2WvLNfduHY4-115" value="" style="edgeStyle=orthogonalEdgeStyle;rounded=0;orthogonalLoop=1;jettySize=auto;html=1;entryX=0.5;entryY=0;entryDx=0;entryDy=0;" parent="1" source="of-Or63fq2WvLNfduHY4-66" target="of-Or63fq2WvLNfduHY4-114" edge="1">
                    <mxGeometry relative="1" as="geometry"/>
                </mxCell>
                <mxCell id="of-Or63fq2WvLNfduHY4-116" value="ใช่" style="edgeLabel;html=1;align=center;verticalAlign=middle;resizable=0;points=[];" parent="of-Or63fq2WvLNfduHY4-115" vertex="1" connectable="0">
                    <mxGeometry x="-0.2091" y="1" relative="1" as="geometry">
                        <mxPoint as="offset"/>
                    </mxGeometry>
                </mxCell>
                <mxCell id="of-Or63fq2WvLNfduHY4-118" value="" style="edgeStyle=orthogonalEdgeStyle;rounded=0;orthogonalLoop=1;jettySize=auto;html=1;" parent="1" source="of-Or63fq2WvLNfduHY4-66" target="of-Or63fq2WvLNfduHY4-117" edge="1">
                    <mxGeometry relative="1" as="geometry"/>
                </mxCell>
                <mxCell id="of-Or63fq2WvLNfduHY4-119" value="ไม่" style="edgeLabel;html=1;align=center;verticalAlign=middle;resizable=0;points=[];" parent="of-Or63fq2WvLNfduHY4-118" vertex="1" connectable="0">
                    <mxGeometry x="-0.3871" y="2" relative="1" as="geometry">
                        <mxPoint as="offset"/>
                    </mxGeometry>
                </mxCell>
                <mxCell id="of-Or63fq2WvLNfduHY4-66" value="เลือกเมล็ดทานตะวัน&lt;div&gt;หรือไม่&lt;/div&gt;" style="rhombus;whiteSpace=wrap;html=1;fontSize=10;" parent="1" vertex="1">
                    <mxGeometry x="-1703" y="-699.9949999999999" width="80" height="80" as="geometry"/>
                </mxCell>
                <mxCell id="of-Or63fq2WvLNfduHY4-108" value="" style="edgeStyle=orthogonalEdgeStyle;rounded=0;orthogonalLoop=1;jettySize=auto;html=1;entryX=0.5;entryY=0;entryDx=0;entryDy=0;" parent="1" source="of-Or63fq2WvLNfduHY4-68" target="WRIfh3sDyCiLUNuFMf4n-5" edge="1">
                    <mxGeometry relative="1" as="geometry">
                        <mxPoint x="-1085" y="-595" as="targetPoint"/>
                    </mxGeometry>
                </mxCell>
                <mxCell id="WRIfh3sDyCiLUNuFMf4n-4" value="ไม่" style="edgeLabel;html=1;align=center;verticalAlign=middle;resizable=0;points=[];" parent="of-Or63fq2WvLNfduHY4-108" vertex="1" connectable="0">
                    <mxGeometry x="-0.2114" y="4" relative="1" as="geometry">
                        <mxPoint x="-5" as="offset"/>
                    </mxGeometry>
                </mxCell>
                <mxCell id="WRIfh3sDyCiLUNuFMf4n-2" value="" style="edgeStyle=orthogonalEdgeStyle;rounded=0;orthogonalLoop=1;jettySize=auto;html=1;entryX=0.5;entryY=0;entryDx=0;entryDy=0;" parent="1" source="of-Or63fq2WvLNfduHY4-68" target="WRIfh3sDyCiLUNuFMf4n-1" edge="1">
                    <mxGeometry relative="1" as="geometry"/>
                </mxCell>
                <mxCell id="WRIfh3sDyCiLUNuFMf4n-3" value="ใช่" style="edgeLabel;html=1;align=center;verticalAlign=middle;resizable=0;points=[];" parent="WRIfh3sDyCiLUNuFMf4n-2" vertex="1" connectable="0">
                    <mxGeometry x="-0.1793" y="-1" relative="1" as="geometry">
                        <mxPoint as="offset"/>
                    </mxGeometry>
                </mxCell>
                <mxCell id="of-Or63fq2WvLNfduHY4-68" value="&lt;font style=&quot;font-size: 9px;&quot;&gt;เลือกโค้กกระป๋องหรือไม่&lt;/font&gt;" style="rhombus;whiteSpace=wrap;html=1;fontSize=10;" parent="1" vertex="1">
                    <mxGeometry x="-1125" y="-730.0050000000001" width="80" height="80" as="geometry"/>
                </mxCell>
                <mxCell id="WRIfh3sDyCiLUNuFMf4n-95" value="" style="edgeStyle=orthogonalEdgeStyle;rounded=0;orthogonalLoop=1;jettySize=auto;html=1;" parent="1" source="of-Or63fq2WvLNfduHY4-103" target="of-Or63fq2WvLNfduHY4-50" edge="1">
                    <mxGeometry relative="1" as="geometry"/>
                </mxCell>
                <mxCell id="of-Or63fq2WvLNfduHY4-103" value="&lt;div&gt;&lt;br&gt;&lt;/div&gt;กำหนดตัวแปร&lt;div&gt;a=50,b=50,c=50,d=50,e=50,f=50,g=50&lt;/div&gt;&lt;div&gt;&lt;br&gt;&lt;/div&gt;" style="rounded=0;whiteSpace=wrap;html=1;" parent="1" vertex="1">
                    <mxGeometry x="-1552.5" y="-1160" width="215" height="40" as="geometry"/>
                </mxCell>
                <mxCell id="of-Or63fq2WvLNfduHY4-121" value="" style="edgeStyle=orthogonalEdgeStyle;rounded=0;orthogonalLoop=1;jettySize=auto;html=1;" parent="1" source="of-Or63fq2WvLNfduHY4-114" target="of-Or63fq2WvLNfduHY4-120" edge="1">
                    <mxGeometry relative="1" as="geometry"/>
                </mxCell>
                <mxCell id="of-Or63fq2WvLNfduHY4-125" value="ไม่" style="edgeLabel;html=1;align=center;verticalAlign=middle;resizable=0;points=[];" parent="of-Or63fq2WvLNfduHY4-121" vertex="1" connectable="0">
                    <mxGeometry x="0.1199" y="-2" relative="1" as="geometry">
                        <mxPoint as="offset"/>
                    </mxGeometry>
                </mxCell>
                <mxCell id="of-Or63fq2WvLNfduHY4-191" value="" style="edgeStyle=orthogonalEdgeStyle;rounded=0;orthogonalLoop=1;jettySize=auto;html=1;entryX=0.5;entryY=0;entryDx=0;entryDy=0;" parent="1" source="of-Or63fq2WvLNfduHY4-114" target="of-Or63fq2WvLNfduHY4-193" edge="1">
                    <mxGeometry relative="1" as="geometry">
                        <mxPoint x="-1980" y="-420" as="targetPoint"/>
                    </mxGeometry>
                </mxCell>
                <mxCell id="of-Or63fq2WvLNfduHY4-192" value="ใช่" style="edgeLabel;html=1;align=center;verticalAlign=middle;resizable=0;points=[];" parent="of-Or63fq2WvLNfduHY4-191" vertex="1" connectable="0">
                    <mxGeometry x="-0.1304" y="2" relative="1" as="geometry">
                        <mxPoint x="66" as="offset"/>
                    </mxGeometry>
                </mxCell>
                <mxCell id="of-Or63fq2WvLNfduHY4-114" value="a&amp;lt;=0 หรือไม่" style="rhombus;whiteSpace=wrap;html=1;fontSize=10;" parent="1" vertex="1">
                    <mxGeometry x="-1828" y="-639.9949999999999" width="80" height="80" as="geometry"/>
                </mxCell>
                <mxCell id="of-Or63fq2WvLNfduHY4-129" value="" style="edgeStyle=orthogonalEdgeStyle;rounded=0;orthogonalLoop=1;jettySize=auto;html=1;entryX=0.5;entryY=0;entryDx=0;entryDy=0;" parent="1" edge="1">
                    <mxGeometry relative="1" as="geometry">
                        <mxPoint x="-1622.9976315789474" y="-514.9973684210527" as="sourcePoint"/>
                        <mxPoint x="-1529.95" y="-395.0500000000002" as="targetPoint"/>
                    </mxGeometry>
                </mxCell>
                <mxCell id="of-Or63fq2WvLNfduHY4-182" value="จิ้นส้มหมก" style="edgeLabel;html=1;align=center;verticalAlign=middle;resizable=0;points=[];" parent="of-Or63fq2WvLNfduHY4-129" vertex="1" connectable="0">
                    <mxGeometry x="-0.1935" y="-2" relative="1" as="geometry">
                        <mxPoint x="-33" y="-2" as="offset"/>
                    </mxGeometry>
                </mxCell>
                <mxCell id="of-Or63fq2WvLNfduHY4-132" value="" style="edgeStyle=orthogonalEdgeStyle;rounded=0;orthogonalLoop=1;jettySize=auto;html=1;" parent="1" source="of-Or63fq2WvLNfduHY4-117" target="of-Or63fq2WvLNfduHY4-131" edge="1">
                    <mxGeometry relative="1" as="geometry"/>
                </mxCell>
                <mxCell id="of-Or63fq2WvLNfduHY4-159" value="ใช่" style="edgeLabel;html=1;align=center;verticalAlign=middle;resizable=0;points=[];" parent="of-Or63fq2WvLNfduHY4-132" vertex="1" connectable="0">
                    <mxGeometry x="0.1712" y="-1" relative="1" as="geometry">
                        <mxPoint as="offset"/>
                    </mxGeometry>
                </mxCell>
                <mxCell id="of-Or63fq2WvLNfduHY4-194" value="ถั่วแปบ" style="edgeLabel;html=1;align=center;verticalAlign=middle;resizable=0;points=[];" parent="of-Or63fq2WvLNfduHY4-132" vertex="1" connectable="0">
                    <mxGeometry x="0.2929" y="3" relative="1" as="geometry">
                        <mxPoint as="offset"/>
                    </mxGeometry>
                </mxCell>
                <mxCell id="of-Or63fq2WvLNfduHY4-117" value="เลือกถั่วแปบ&lt;div&gt;หรือจิ้นส้มหมก&lt;/div&gt;" style="rhombus;whiteSpace=wrap;html=1;fontSize=10;" parent="1" vertex="1">
                    <mxGeometry x="-1703" y="-559.9949999999999" width="80" height="80" as="geometry"/>
                </mxCell>
                <mxCell id="of-Or63fq2WvLNfduHY4-127" value="" style="edgeStyle=orthogonalEdgeStyle;rounded=0;orthogonalLoop=1;jettySize=auto;html=1;" parent="1" source="of-Or63fq2WvLNfduHY4-120" target="of-Or63fq2WvLNfduHY4-126" edge="1">
                    <mxGeometry relative="1" as="geometry"/>
                </mxCell>
                <mxCell id="of-Or63fq2WvLNfduHY4-120" value="ทานตะวัน=ทานตะวัน+1" style="whiteSpace=wrap;html=1;fontSize=10;" parent="1" vertex="1">
                    <mxGeometry x="-1848" y="-530" width="120" height="30" as="geometry"/>
                </mxCell>
                <mxCell id="of-Or63fq2WvLNfduHY4-198" value="" style="edgeStyle=orthogonalEdgeStyle;rounded=0;orthogonalLoop=1;jettySize=auto;html=1;" parent="1" source="of-Or63fq2WvLNfduHY4-122" edge="1">
                    <mxGeometry relative="1" as="geometry">
                        <mxPoint x="-2111" y="-900" as="targetPoint"/>
                    </mxGeometry>
                </mxCell>
                <mxCell id="of-Or63fq2WvLNfduHY4-122" value="แสดง&lt;div&gt;สินค้าหมด&lt;/div&gt;" style="shape=parallelogram;perimeter=parallelogramPerimeter;whiteSpace=wrap;html=1;fixedSize=1;fontSize=10;" parent="1" vertex="1">
                    <mxGeometry x="-2160" y="-424.9899999999998" width="98" height="30" as="geometry"/>
                </mxCell>
                <mxCell id="WRIfh3sDyCiLUNuFMf4n-89" value="" style="edgeStyle=orthogonalEdgeStyle;rounded=0;orthogonalLoop=1;jettySize=auto;html=1;endArrow=none;endFill=0;" parent="1" source="of-Or63fq2WvLNfduHY4-126" edge="1">
                    <mxGeometry relative="1" as="geometry">
                        <mxPoint x="-1788" y="-152.5" as="targetPoint"/>
                    </mxGeometry>
                </mxCell>
                <mxCell id="of-Or63fq2WvLNfduHY4-126" value="a=a-1" style="whiteSpace=wrap;html=1;fontSize=10;" parent="1" vertex="1">
                    <mxGeometry x="-1848" y="-479.9899999999998" width="120" height="30" as="geometry"/>
                </mxCell>
                <mxCell id="of-Or63fq2WvLNfduHY4-137" value="" style="edgeStyle=orthogonalEdgeStyle;rounded=0;orthogonalLoop=1;jettySize=auto;html=1;entryX=0.5;entryY=0;entryDx=0;entryDy=0;" parent="1" source="of-Or63fq2WvLNfduHY4-131" target="of-Or63fq2WvLNfduHY4-135" edge="1">
                    <mxGeometry relative="1" as="geometry"/>
                </mxCell>
                <mxCell id="4r5OtbxDzH6CqMdZdlSV-17" value="ไม่" style="edgeLabel;html=1;align=center;verticalAlign=middle;resizable=0;points=[];" parent="of-Or63fq2WvLNfduHY4-137" vertex="1" connectable="0">
                    <mxGeometry x="0.1015" y="1" relative="1" as="geometry">
                        <mxPoint as="offset"/>
                    </mxGeometry>
                </mxCell>
                <mxCell id="of-Or63fq2WvLNfduHY4-187" value="" style="edgeStyle=orthogonalEdgeStyle;rounded=0;orthogonalLoop=1;jettySize=auto;html=1;entryX=1;entryY=0.5;entryDx=0;entryDy=0;" parent="1" source="of-Or63fq2WvLNfduHY4-131" target="of-Or63fq2WvLNfduHY4-193" edge="1">
                    <mxGeometry relative="1" as="geometry">
                        <mxPoint x="-1960" y="-410" as="targetPoint"/>
                    </mxGeometry>
                </mxCell>
                <mxCell id="of-Or63fq2WvLNfduHY4-188" value="ใช่" style="edgeLabel;html=1;align=center;verticalAlign=middle;resizable=0;points=[];" parent="of-Or63fq2WvLNfduHY4-187" vertex="1" connectable="0">
                    <mxGeometry x="-0.6061" y="1" relative="1" as="geometry">
                        <mxPoint as="offset"/>
                    </mxGeometry>
                </mxCell>
                <mxCell id="of-Or63fq2WvLNfduHY4-131" value="b&amp;lt;=0หรือไม่" style="rhombus;whiteSpace=wrap;html=1;fontSize=10;" parent="1" vertex="1">
                    <mxGeometry x="-1703" y="-449.9850000000001" width="80" height="80" as="geometry"/>
                </mxCell>
                <mxCell id="of-Or63fq2WvLNfduHY4-138" value="" style="edgeStyle=orthogonalEdgeStyle;rounded=0;orthogonalLoop=1;jettySize=auto;html=1;" parent="1" source="of-Or63fq2WvLNfduHY4-135" target="of-Or63fq2WvLNfduHY4-136" edge="1">
                    <mxGeometry relative="1" as="geometry"/>
                </mxCell>
                <mxCell id="of-Or63fq2WvLNfduHY4-135" value="ถั่ว=ถั่ว+1" style="whiteSpace=wrap;html=1;fontSize=10;" parent="1" vertex="1">
                    <mxGeometry x="-1723" y="-330" width="120" height="30" as="geometry"/>
                </mxCell>
                <mxCell id="of-Or63fq2WvLNfduHY4-177" value="" style="edgeStyle=orthogonalEdgeStyle;rounded=0;orthogonalLoop=1;jettySize=auto;html=1;entryX=0.5;entryY=0;entryDx=0;entryDy=0;exitX=0.5;exitY=1;exitDx=0;exitDy=0;" parent="1" source="of-Or63fq2WvLNfduHY4-136" target="of-Or63fq2WvLNfduHY4-184" edge="1">
                    <mxGeometry relative="1" as="geometry">
                        <mxPoint x="-1667.95652173913" y="-270" as="sourcePoint"/>
                        <mxPoint x="-1665" y="-180" as="targetPoint"/>
                        <Array as="points">
                            <mxPoint x="-1663" y="-180"/>
                            <mxPoint x="-1445" y="-180"/>
                        </Array>
                    </mxGeometry>
                </mxCell>
                <mxCell id="of-Or63fq2WvLNfduHY4-136" value="b=b-1" style="whiteSpace=wrap;html=1;fontSize=10;" parent="1" vertex="1">
                    <mxGeometry x="-1723" y="-280" width="120" height="30" as="geometry"/>
                </mxCell>
                <mxCell id="of-Or63fq2WvLNfduHY4-156" value="" style="edgeStyle=orthogonalEdgeStyle;rounded=0;orthogonalLoop=1;jettySize=auto;html=1;" parent="1" source="of-Or63fq2WvLNfduHY4-153" target="of-Or63fq2WvLNfduHY4-155" edge="1">
                    <mxGeometry relative="1" as="geometry"/>
                </mxCell>
                <mxCell id="of-Or63fq2WvLNfduHY4-153" value="จิ้นส้ม=จิ้นส้ม+1" style="whiteSpace=wrap;html=1;fontSize=10;" parent="1" vertex="1">
                    <mxGeometry x="-1590" y="-290" width="120" height="30" as="geometry"/>
                </mxCell>
                <mxCell id="WRIfh3sDyCiLUNuFMf4n-93" value="" style="edgeStyle=orthogonalEdgeStyle;rounded=0;orthogonalLoop=1;jettySize=auto;html=1;entryX=0;entryY=1;entryDx=0;entryDy=0;" parent="1" source="of-Or63fq2WvLNfduHY4-155" target="of-Or63fq2WvLNfduHY4-184" edge="1">
                    <mxGeometry relative="1" as="geometry">
                        <mxPoint x="-1530" y="-90" as="targetPoint"/>
                        <Array as="points">
                            <mxPoint x="-1550" y="-120"/>
                        </Array>
                    </mxGeometry>
                </mxCell>
                <mxCell id="of-Or63fq2WvLNfduHY4-155" value="c=c-1" style="whiteSpace=wrap;html=1;fontSize=10;" parent="1" vertex="1">
                    <mxGeometry x="-1590" y="-240" width="120" height="30" as="geometry"/>
                </mxCell>
                <mxCell id="of-Or63fq2WvLNfduHY4-171" value="" style="edgeStyle=orthogonalEdgeStyle;rounded=0;orthogonalLoop=1;jettySize=auto;html=1;entryX=0.5;entryY=0;entryDx=0;entryDy=0;" parent="1" source="of-Or63fq2WvLNfduHY4-167" target="of-Or63fq2WvLNfduHY4-153" edge="1">
                    <mxGeometry relative="1" as="geometry"/>
                </mxCell>
                <mxCell id="CV8JPxTUxD7DSwnHUK7A-1" value="ไม่" style="edgeLabel;html=1;align=center;verticalAlign=middle;resizable=0;points=[];" parent="of-Or63fq2WvLNfduHY4-171" vertex="1" connectable="0">
                    <mxGeometry x="0.0968" y="-1" relative="1" as="geometry">
                        <mxPoint as="offset"/>
                    </mxGeometry>
                </mxCell>
                <mxCell id="of-Or63fq2WvLNfduHY4-167" value="c&amp;lt;=0หรือไม่" style="rhombus;whiteSpace=wrap;html=1;fontSize=10;" parent="1" vertex="1">
                    <mxGeometry x="-1570" y="-400" width="80" height="80" as="geometry"/>
                </mxCell>
                <mxCell id="4r5OtbxDzH6CqMdZdlSV-33" value="" style="edgeStyle=orthogonalEdgeStyle;rounded=0;orthogonalLoop=1;jettySize=auto;html=1;" parent="1" source="of-Or63fq2WvLNfduHY4-184" target="4r5OtbxDzH6CqMdZdlSV-32" edge="1">
                    <mxGeometry relative="1" as="geometry">
                        <Array as="points">
                            <mxPoint x="-1445" y="-50"/>
                            <mxPoint x="-1255" y="-50"/>
                        </Array>
                    </mxGeometry>
                </mxCell>
                <mxCell id="of-Or63fq2WvLNfduHY4-184" value="" style="ellipse;whiteSpace=wrap;html=1;aspect=fixed;" parent="1" vertex="1">
                    <mxGeometry x="-1462.5" y="-150" width="35" height="35" as="geometry"/>
                </mxCell>
                <mxCell id="of-Or63fq2WvLNfduHY4-196" value="" style="edgeStyle=orthogonalEdgeStyle;rounded=0;orthogonalLoop=1;jettySize=auto;html=1;" parent="1" source="of-Or63fq2WvLNfduHY4-193" target="of-Or63fq2WvLNfduHY4-122" edge="1">
                    <mxGeometry relative="1" as="geometry"/>
                </mxCell>
                <mxCell id="of-Or63fq2WvLNfduHY4-193" value="" style="ellipse;whiteSpace=wrap;html=1;aspect=fixed;" parent="1" vertex="1">
                    <mxGeometry x="-1990" y="-424.9899999999998" width="30" height="30" as="geometry"/>
                </mxCell>
                <mxCell id="of-Or63fq2WvLNfduHY4-185" value="" style="edgeStyle=orthogonalEdgeStyle;rounded=0;orthogonalLoop=1;jettySize=auto;html=1;entryX=0.5;entryY=1;entryDx=0;entryDy=0;" parent="1" source="of-Or63fq2WvLNfduHY4-167" target="of-Or63fq2WvLNfduHY4-193" edge="1">
                    <mxGeometry relative="1" as="geometry">
                        <mxPoint x="-1980" y="-360" as="targetPoint"/>
                        <Array as="points">
                            <mxPoint x="-1975" y="-360"/>
                        </Array>
                    </mxGeometry>
                </mxCell>
                <mxCell id="of-Or63fq2WvLNfduHY4-189" value="ใช่" style="edgeLabel;html=1;align=center;verticalAlign=middle;resizable=0;points=[];" parent="of-Or63fq2WvLNfduHY4-185" vertex="1" connectable="0">
                    <mxGeometry x="-0.0932" y="-2" relative="1" as="geometry">
                        <mxPoint x="16" y="2" as="offset"/>
                    </mxGeometry>
                </mxCell>
                <mxCell id="of-Or63fq2WvLNfduHY4-200" value="" style="edgeStyle=orthogonalEdgeStyle;rounded=0;orthogonalLoop=1;jettySize=auto;html=1;" parent="1" edge="1">
                    <mxGeometry relative="1" as="geometry">
                        <mxPoint x="-2111" y="-900" as="sourcePoint"/>
                        <mxPoint x="-1445" y="-900" as="targetPoint"/>
                    </mxGeometry>
                </mxCell>
                <mxCell id="4r5OtbxDzH6CqMdZdlSV-14" value="" style="edgeStyle=orthogonalEdgeStyle;rounded=0;orthogonalLoop=1;jettySize=auto;html=1;entryX=0.5;entryY=0;entryDx=0;entryDy=0;" parent="1" source="of-Or63fq2WvLNfduHY4-204" target="4r5OtbxDzH6CqMdZdlSV-13" edge="1">
                    <mxGeometry relative="1" as="geometry"/>
                </mxCell>
                <mxCell id="4r5OtbxDzH6CqMdZdlSV-15" value="ใช่" style="edgeLabel;html=1;align=center;verticalAlign=middle;resizable=0;points=[];" parent="4r5OtbxDzH6CqMdZdlSV-14" vertex="1" connectable="0">
                    <mxGeometry x="-0.3818" relative="1" as="geometry">
                        <mxPoint as="offset"/>
                    </mxGeometry>
                </mxCell>
                <mxCell id="4r5OtbxDzH6CqMdZdlSV-123" value="" style="edgeStyle=orthogonalEdgeStyle;rounded=0;orthogonalLoop=1;jettySize=auto;html=1;entryX=0.5;entryY=0;entryDx=0;entryDy=0;" parent="1" source="of-Or63fq2WvLNfduHY4-204" target="4r5OtbxDzH6CqMdZdlSV-122" edge="1">
                    <mxGeometry relative="1" as="geometry"/>
                </mxCell>
                <mxCell id="4r5OtbxDzH6CqMdZdlSV-126" value="ไม่" style="edgeLabel;html=1;align=center;verticalAlign=middle;resizable=0;points=[];" parent="4r5OtbxDzH6CqMdZdlSV-123" vertex="1" connectable="0">
                    <mxGeometry x="-0.2948" y="-1" relative="1" as="geometry">
                        <mxPoint as="offset"/>
                    </mxGeometry>
                </mxCell>
                <mxCell id="of-Or63fq2WvLNfduHY4-204" value="&lt;font style=&quot;font-size: 9px;&quot;&gt;ต้องการ&lt;/font&gt;&lt;div&gt;&lt;font style=&quot;font-size: 9px;&quot;&gt;ยกเลิกสินค้า&lt;/font&gt;&lt;/div&gt;" style="rhombus;whiteSpace=wrap;html=1;" parent="1" vertex="1">
                    <mxGeometry x="-1567" y="180" width="93" height="90" as="geometry"/>
                </mxCell>
                <mxCell id="WRIfh3sDyCiLUNuFMf4n-9" value="" style="edgeStyle=orthogonalEdgeStyle;rounded=0;orthogonalLoop=1;jettySize=auto;html=1;" parent="1" source="WRIfh3sDyCiLUNuFMf4n-1" target="WRIfh3sDyCiLUNuFMf4n-8" edge="1">
                    <mxGeometry relative="1" as="geometry"/>
                </mxCell>
                <mxCell id="WRIfh3sDyCiLUNuFMf4n-10" value="ไม่" style="edgeLabel;html=1;align=center;verticalAlign=middle;resizable=0;points=[];" parent="WRIfh3sDyCiLUNuFMf4n-9" vertex="1" connectable="0">
                    <mxGeometry x="0.2146" y="1" relative="1" as="geometry">
                        <mxPoint as="offset"/>
                    </mxGeometry>
                </mxCell>
                <mxCell id="WRIfh3sDyCiLUNuFMf4n-14" value="" style="edgeStyle=orthogonalEdgeStyle;rounded=0;orthogonalLoop=1;jettySize=auto;html=1;entryX=0;entryY=0.5;entryDx=0;entryDy=0;" parent="1" source="WRIfh3sDyCiLUNuFMf4n-1" target="WRIfh3sDyCiLUNuFMf4n-68" edge="1">
                    <mxGeometry relative="1" as="geometry">
                        <mxPoint x="-890" y="-620.0050000000001" as="targetPoint"/>
                    </mxGeometry>
                </mxCell>
                <mxCell id="WRIfh3sDyCiLUNuFMf4n-1" value="d&amp;lt;=0หรือไม่" style="rhombus;whiteSpace=wrap;html=1;fontSize=10;" parent="1" vertex="1">
                    <mxGeometry x="-1245" y="-660.0050000000001" width="80" height="80" as="geometry"/>
                </mxCell>
                <mxCell id="WRIfh3sDyCiLUNuFMf4n-16" value="" style="edgeStyle=orthogonalEdgeStyle;rounded=0;orthogonalLoop=1;jettySize=auto;html=1;" parent="1" source="WRIfh3sDyCiLUNuFMf4n-5" target="WRIfh3sDyCiLUNuFMf4n-15" edge="1">
                    <mxGeometry relative="1" as="geometry"/>
                </mxCell>
                <mxCell id="WRIfh3sDyCiLUNuFMf4n-17" value="ใช่" style="edgeLabel;html=1;align=center;verticalAlign=middle;resizable=0;points=[];" parent="WRIfh3sDyCiLUNuFMf4n-16" vertex="1" connectable="0">
                    <mxGeometry x="-0.063" y="-2" relative="1" as="geometry">
                        <mxPoint as="offset"/>
                    </mxGeometry>
                </mxCell>
                <mxCell id="WRIfh3sDyCiLUNuFMf4n-29" value="" style="edgeStyle=orthogonalEdgeStyle;rounded=0;orthogonalLoop=1;jettySize=auto;html=1;entryX=0.5;entryY=0;entryDx=0;entryDy=0;" parent="1" source="WRIfh3sDyCiLUNuFMf4n-5" target="WRIfh3sDyCiLUNuFMf4n-28" edge="1">
                    <mxGeometry relative="1" as="geometry"/>
                </mxCell>
                <mxCell id="WRIfh3sDyCiLUNuFMf4n-30" value="ไม่" style="edgeLabel;html=1;align=center;verticalAlign=middle;resizable=0;points=[];" parent="WRIfh3sDyCiLUNuFMf4n-29" vertex="1" connectable="0">
                    <mxGeometry x="0.1083" relative="1" as="geometry">
                        <mxPoint as="offset"/>
                    </mxGeometry>
                </mxCell>
                <mxCell id="WRIfh3sDyCiLUNuFMf4n-5" value="เลือกน้ำเขียว&lt;div&gt;กระป๋องหรือไม่&lt;/div&gt;" style="rhombus;whiteSpace=wrap;html=1;fontSize=9;" parent="1" vertex="1">
                    <mxGeometry x="-1125" y="-610" width="80" height="80" as="geometry"/>
                </mxCell>
                <mxCell id="WRIfh3sDyCiLUNuFMf4n-12" value="" style="edgeStyle=orthogonalEdgeStyle;rounded=0;orthogonalLoop=1;jettySize=auto;html=1;" parent="1" source="WRIfh3sDyCiLUNuFMf4n-8" target="WRIfh3sDyCiLUNuFMf4n-11" edge="1">
                    <mxGeometry relative="1" as="geometry"/>
                </mxCell>
                <mxCell id="WRIfh3sDyCiLUNuFMf4n-8" value="โค้ก=โค้ก+1" style="whiteSpace=wrap;html=1;fontSize=10;" parent="1" vertex="1">
                    <mxGeometry x="-1265" y="-550" width="120" height="30" as="geometry"/>
                </mxCell>
                <mxCell id="WRIfh3sDyCiLUNuFMf4n-84" value="" style="edgeStyle=orthogonalEdgeStyle;rounded=0;orthogonalLoop=1;jettySize=auto;html=1;entryX=1;entryY=0.5;entryDx=0;entryDy=0;exitX=0.5;exitY=1;exitDx=0;exitDy=0;" parent="1" source="WRIfh3sDyCiLUNuFMf4n-11" target="of-Or63fq2WvLNfduHY4-184" edge="1">
                    <mxGeometry relative="1" as="geometry">
                        <mxPoint x="-1205" y="-150" as="targetPoint"/>
                    </mxGeometry>
                </mxCell>
                <mxCell id="WRIfh3sDyCiLUNuFMf4n-11" value="d=d-1" style="whiteSpace=wrap;html=1;fontSize=10;" parent="1" vertex="1">
                    <mxGeometry x="-1265" y="-500" width="120" height="30" as="geometry"/>
                </mxCell>
                <mxCell id="WRIfh3sDyCiLUNuFMf4n-32" value="" style="edgeStyle=orthogonalEdgeStyle;rounded=0;orthogonalLoop=1;jettySize=auto;html=1;entryX=0.5;entryY=0;entryDx=0;entryDy=0;" parent="1" source="WRIfh3sDyCiLUNuFMf4n-15" target="WRIfh3sDyCiLUNuFMf4n-33" edge="1">
                    <mxGeometry relative="1" as="geometry">
                        <mxPoint x="-1084.9999999999995" y="-360" as="targetPoint"/>
                    </mxGeometry>
                </mxCell>
                <mxCell id="WRIfh3sDyCiLUNuFMf4n-43" value="ไม่" style="edgeLabel;html=1;align=center;verticalAlign=middle;resizable=0;points=[];" parent="WRIfh3sDyCiLUNuFMf4n-32" vertex="1" connectable="0">
                    <mxGeometry x="0.5322" relative="1" as="geometry">
                        <mxPoint y="-8" as="offset"/>
                    </mxGeometry>
                </mxCell>
                <mxCell id="WRIfh3sDyCiLUNuFMf4n-42" value="" style="edgeStyle=orthogonalEdgeStyle;rounded=0;orthogonalLoop=1;jettySize=auto;html=1;exitX=1;exitY=0.5;exitDx=0;exitDy=0;entryX=0.5;entryY=1;entryDx=0;entryDy=0;" parent="1" source="WRIfh3sDyCiLUNuFMf4n-15" target="WRIfh3sDyCiLUNuFMf4n-68" edge="1">
                    <mxGeometry relative="1" as="geometry">
                        <mxPoint x="-1030" y="-430" as="sourcePoint"/>
                        <mxPoint x="-610" y="-460" as="targetPoint"/>
                        <Array as="points">
                            <mxPoint x="-715" y="-460"/>
                        </Array>
                    </mxGeometry>
                </mxCell>
                <mxCell id="WRIfh3sDyCiLUNuFMf4n-63" value="ใช่" style="edgeLabel;html=1;align=center;verticalAlign=middle;resizable=0;points=[];" parent="WRIfh3sDyCiLUNuFMf4n-42" vertex="1" connectable="0">
                    <mxGeometry x="-0.7935" y="-3" relative="1" as="geometry">
                        <mxPoint as="offset"/>
                    </mxGeometry>
                </mxCell>
                <mxCell id="WRIfh3sDyCiLUNuFMf4n-15" value="&lt;font size=&quot;1&quot;&gt;e&amp;lt;=0&lt;/font&gt;&lt;div&gt;&lt;font size=&quot;1&quot;&gt;หรือไม่&lt;/font&gt;&lt;/div&gt;" style="rhombus;whiteSpace=wrap;html=1;fontSize=9;" parent="1" vertex="1">
                    <mxGeometry x="-1125" y="-500" width="80" height="80" as="geometry"/>
                </mxCell>
                <mxCell id="WRIfh3sDyCiLUNuFMf4n-38" value="" style="edgeStyle=orthogonalEdgeStyle;rounded=0;orthogonalLoop=1;jettySize=auto;html=1;entryX=0.5;entryY=0;entryDx=0;entryDy=0;" parent="1" source="WRIfh3sDyCiLUNuFMf4n-28" target="WRIfh3sDyCiLUNuFMf4n-41" edge="1">
                    <mxGeometry relative="1" as="geometry">
                        <mxPoint x="-940" y="-480" as="targetPoint"/>
                    </mxGeometry>
                </mxCell>
                <mxCell id="WRIfh3sDyCiLUNuFMf4n-40" value="อเมริกาโน่" style="edgeLabel;html=1;align=center;verticalAlign=middle;resizable=0;points=[];" parent="WRIfh3sDyCiLUNuFMf4n-38" vertex="1" connectable="0">
                    <mxGeometry x="0.2233" y="-3" relative="1" as="geometry">
                        <mxPoint as="offset"/>
                    </mxGeometry>
                </mxCell>
                <mxCell id="WRIfh3sDyCiLUNuFMf4n-55" value="" style="edgeStyle=orthogonalEdgeStyle;rounded=0;orthogonalLoop=1;jettySize=auto;html=1;entryX=0.5;entryY=0;entryDx=0;entryDy=0;" parent="1" source="WRIfh3sDyCiLUNuFMf4n-28" target="WRIfh3sDyCiLUNuFMf4n-54" edge="1">
                    <mxGeometry relative="1" as="geometry"/>
                </mxCell>
                <mxCell id="WRIfh3sDyCiLUNuFMf4n-56" value="&lt;font style=&quot;font-size: 10px;&quot;&gt;ลาเต้&lt;/font&gt;&lt;div&gt;&lt;font style=&quot;font-size: 10px;&quot;&gt;หวานเจี๊ยบ&lt;/font&gt;&lt;/div&gt;" style="edgeLabel;html=1;align=center;verticalAlign=middle;resizable=0;points=[];" parent="WRIfh3sDyCiLUNuFMf4n-55" vertex="1" connectable="0">
                    <mxGeometry x="-0.2557" y="-2" relative="1" as="geometry">
                        <mxPoint as="offset"/>
                    </mxGeometry>
                </mxCell>
                <mxCell id="WRIfh3sDyCiLUNuFMf4n-28" value="&lt;div&gt;&lt;br&gt;&lt;/div&gt;เลือกอเมกาโน่&lt;div&gt;หรือลาเต้หวาน&lt;/div&gt;&lt;div&gt;เจี๊ยบ&lt;/div&gt;" style="rhombus;whiteSpace=wrap;html=1;fontSize=9;" parent="1" vertex="1">
                    <mxGeometry x="-980" y="-550" width="80" height="80" as="geometry"/>
                </mxCell>
                <mxCell id="WRIfh3sDyCiLUNuFMf4n-36" value="" style="edgeStyle=orthogonalEdgeStyle;rounded=0;orthogonalLoop=1;jettySize=auto;html=1;" parent="1" source="WRIfh3sDyCiLUNuFMf4n-33" target="WRIfh3sDyCiLUNuFMf4n-35" edge="1">
                    <mxGeometry relative="1" as="geometry"/>
                </mxCell>
                <mxCell id="WRIfh3sDyCiLUNuFMf4n-33" value="น้ำเขียว=น้ำเขียว+1" style="whiteSpace=wrap;html=1;fontSize=10;" parent="1" vertex="1">
                    <mxGeometry x="-1145" y="-380" width="120" height="30" as="geometry"/>
                </mxCell>
                <mxCell id="WRIfh3sDyCiLUNuFMf4n-78" value="" style="edgeStyle=orthogonalEdgeStyle;rounded=0;orthogonalLoop=1;jettySize=auto;html=1;entryX=1;entryY=1;entryDx=0;entryDy=0;" parent="1" source="WRIfh3sDyCiLUNuFMf4n-35" target="of-Or63fq2WvLNfduHY4-184" edge="1">
                    <mxGeometry relative="1" as="geometry">
                        <mxPoint x="-1085" y="-205" as="targetPoint"/>
                        <Array as="points">
                            <mxPoint x="-1085" y="-80"/>
                            <mxPoint x="-1433" y="-80"/>
                        </Array>
                    </mxGeometry>
                </mxCell>
                <mxCell id="WRIfh3sDyCiLUNuFMf4n-35" value="e=e-1" style="whiteSpace=wrap;html=1;fontSize=10;" parent="1" vertex="1">
                    <mxGeometry x="-1145" y="-330" width="120" height="30" as="geometry"/>
                </mxCell>
                <mxCell id="WRIfh3sDyCiLUNuFMf4n-48" value="" style="edgeStyle=orthogonalEdgeStyle;rounded=0;orthogonalLoop=1;jettySize=auto;html=1;entryX=0.5;entryY=0;entryDx=0;entryDy=0;" parent="1" source="WRIfh3sDyCiLUNuFMf4n-41" target="WRIfh3sDyCiLUNuFMf4n-47" edge="1">
                    <mxGeometry relative="1" as="geometry"/>
                </mxCell>
                <mxCell id="WRIfh3sDyCiLUNuFMf4n-49" value="ไม่" style="edgeLabel;html=1;align=center;verticalAlign=middle;resizable=0;points=[];" parent="WRIfh3sDyCiLUNuFMf4n-48" vertex="1" connectable="0">
                    <mxGeometry x="-0.3093" y="-1" relative="1" as="geometry">
                        <mxPoint as="offset"/>
                    </mxGeometry>
                </mxCell>
                <mxCell id="WRIfh3sDyCiLUNuFMf4n-53" value="" style="edgeStyle=orthogonalEdgeStyle;rounded=0;orthogonalLoop=1;jettySize=auto;html=1;entryX=1;entryY=1;entryDx=0;entryDy=0;" parent="1" source="WRIfh3sDyCiLUNuFMf4n-41" target="WRIfh3sDyCiLUNuFMf4n-68" edge="1">
                    <mxGeometry relative="1" as="geometry">
                        <mxPoint x="-630" y="-390" as="targetPoint"/>
                    </mxGeometry>
                </mxCell>
                <mxCell id="WRIfh3sDyCiLUNuFMf4n-64" value="ใช่" style="edgeLabel;html=1;align=center;verticalAlign=middle;resizable=0;points=[];" parent="WRIfh3sDyCiLUNuFMf4n-53" vertex="1" connectable="0">
                    <mxGeometry x="-0.7845" y="2" relative="1" as="geometry">
                        <mxPoint as="offset"/>
                    </mxGeometry>
                </mxCell>
                <mxCell id="WRIfh3sDyCiLUNuFMf4n-41" value="&lt;font size=&quot;1&quot;&gt;f&amp;lt;=0&lt;/font&gt;&lt;div&gt;&lt;font size=&quot;1&quot;&gt;หรือไม่&lt;/font&gt;&lt;/div&gt;" style="rhombus;whiteSpace=wrap;html=1;fontSize=9;" parent="1" vertex="1">
                    <mxGeometry x="-980" y="-430" width="80" height="80" as="geometry"/>
                </mxCell>
                <mxCell id="WRIfh3sDyCiLUNuFMf4n-62" value="" style="edgeStyle=orthogonalEdgeStyle;rounded=0;orthogonalLoop=1;jettySize=auto;html=1;" parent="1" source="WRIfh3sDyCiLUNuFMf4n-47" target="WRIfh3sDyCiLUNuFMf4n-50" edge="1">
                    <mxGeometry relative="1" as="geometry"/>
                </mxCell>
                <mxCell id="WRIfh3sDyCiLUNuFMf4n-47" value="อเมริ=อเมริ+1" style="whiteSpace=wrap;html=1;fontSize=10;" parent="1" vertex="1">
                    <mxGeometry x="-1000" y="-310" width="120" height="30" as="geometry"/>
                </mxCell>
                <mxCell id="WRIfh3sDyCiLUNuFMf4n-80" value="" style="edgeStyle=orthogonalEdgeStyle;rounded=0;orthogonalLoop=1;jettySize=auto;html=1;entryX=1;entryY=1;entryDx=0;entryDy=0;" parent="1" source="WRIfh3sDyCiLUNuFMf4n-50" target="of-Or63fq2WvLNfduHY4-184" edge="1">
                    <mxGeometry relative="1" as="geometry">
                        <mxPoint x="-940" y="-135" as="targetPoint"/>
                        <Array as="points">
                            <mxPoint x="-940" y="-120"/>
                            <mxPoint x="-1343" y="-120"/>
                        </Array>
                    </mxGeometry>
                </mxCell>
                <mxCell id="WRIfh3sDyCiLUNuFMf4n-50" value="f=f-1" style="whiteSpace=wrap;html=1;fontSize=10;" parent="1" vertex="1">
                    <mxGeometry x="-1000" y="-260" width="120" height="30" as="geometry"/>
                </mxCell>
                <mxCell id="WRIfh3sDyCiLUNuFMf4n-58" value="" style="edgeStyle=orthogonalEdgeStyle;rounded=0;orthogonalLoop=1;jettySize=auto;html=1;entryX=0.5;entryY=0;entryDx=0;entryDy=0;" parent="1" source="WRIfh3sDyCiLUNuFMf4n-54" target="WRIfh3sDyCiLUNuFMf4n-59" edge="1">
                    <mxGeometry relative="1" as="geometry">
                        <mxPoint x="-800" y="-510" as="targetPoint"/>
                    </mxGeometry>
                </mxCell>
                <mxCell id="WRIfh3sDyCiLUNuFMf4n-61" value="ไม่" style="edgeLabel;html=1;align=center;verticalAlign=middle;resizable=0;points=[];" parent="WRIfh3sDyCiLUNuFMf4n-58" vertex="1" connectable="0">
                    <mxGeometry x="0.4399" y="1" relative="1" as="geometry">
                        <mxPoint x="-2" y="-5" as="offset"/>
                    </mxGeometry>
                </mxCell>
                <mxCell id="WRIfh3sDyCiLUNuFMf4n-66" value="" style="edgeStyle=orthogonalEdgeStyle;rounded=0;orthogonalLoop=1;jettySize=auto;html=1;entryX=0.975;entryY=0.732;entryDx=0;entryDy=0;entryPerimeter=0;" parent="1" source="WRIfh3sDyCiLUNuFMf4n-54" target="WRIfh3sDyCiLUNuFMf4n-68" edge="1">
                    <mxGeometry relative="1" as="geometry">
                        <mxPoint x="-660" y="-610" as="targetPoint"/>
                    </mxGeometry>
                </mxCell>
                <mxCell id="WRIfh3sDyCiLUNuFMf4n-67" value="ใช่" style="edgeLabel;html=1;align=center;verticalAlign=middle;resizable=0;points=[];" parent="WRIfh3sDyCiLUNuFMf4n-66" vertex="1" connectable="0">
                    <mxGeometry x="-0.4261" y="-4" relative="1" as="geometry">
                        <mxPoint x="-53" y="-4" as="offset"/>
                    </mxGeometry>
                </mxCell>
                <mxCell id="WRIfh3sDyCiLUNuFMf4n-54" value="g&amp;lt;=0&lt;div&gt;หรือไม่&lt;/div&gt;" style="rhombus;whiteSpace=wrap;html=1;fontSize=9;" parent="1" vertex="1">
                    <mxGeometry x="-840" y="-454.9899999999998" width="70" height="60" as="geometry"/>
                </mxCell>
                <mxCell id="WRIfh3sDyCiLUNuFMf4n-82" value="" style="edgeStyle=orthogonalEdgeStyle;rounded=0;orthogonalLoop=1;jettySize=auto;html=1;entryX=1;entryY=0;entryDx=0;entryDy=0;exitX=0.5;exitY=1;exitDx=0;exitDy=0;" parent="1" source="WRIfh3sDyCiLUNuFMf4n-113" edge="1">
                    <mxGeometry relative="1" as="geometry">
                        <mxPoint x="-805" y="-329" as="sourcePoint"/>
                        <mxPoint x="-1432.625631329166" y="-143.87436867083352" as="targetPoint"/>
                        <Array as="points">
                            <mxPoint x="-805" y="-260"/>
                            <mxPoint x="-805" y="-144"/>
                        </Array>
                    </mxGeometry>
                </mxCell>
                <mxCell id="WRIfh3sDyCiLUNuFMf4n-114" value="" style="edgeStyle=orthogonalEdgeStyle;rounded=0;orthogonalLoop=1;jettySize=auto;html=1;" parent="1" source="WRIfh3sDyCiLUNuFMf4n-59" target="WRIfh3sDyCiLUNuFMf4n-113" edge="1">
                    <mxGeometry relative="1" as="geometry"/>
                </mxCell>
                <mxCell id="WRIfh3sDyCiLUNuFMf4n-59" value="ลาเต้=ลาเต้+1" style="whiteSpace=wrap;html=1;fontSize=10;" parent="1" vertex="1">
                    <mxGeometry x="-865" y="-360" width="120" height="30" as="geometry"/>
                </mxCell>
                <mxCell id="WRIfh3sDyCiLUNuFMf4n-70" value="" style="edgeStyle=orthogonalEdgeStyle;rounded=0;orthogonalLoop=1;jettySize=auto;html=1;entryX=0.5;entryY=1;entryDx=0;entryDy=0;" parent="1" source="WRIfh3sDyCiLUNuFMf4n-68" target="WRIfh3sDyCiLUNuFMf4n-71" edge="1">
                    <mxGeometry relative="1" as="geometry">
                        <mxPoint x="-715" y="-700.0100000000002" as="targetPoint"/>
                    </mxGeometry>
                </mxCell>
                <mxCell id="WRIfh3sDyCiLUNuFMf4n-68" value="" style="ellipse;whiteSpace=wrap;html=1;aspect=fixed;" parent="1" vertex="1">
                    <mxGeometry x="-730" y="-635.0100000000002" width="30" height="30" as="geometry"/>
                </mxCell>
                <mxCell id="WRIfh3sDyCiLUNuFMf4n-109" value="" style="edgeStyle=orthogonalEdgeStyle;rounded=0;orthogonalLoop=1;jettySize=auto;html=1;" parent="1" source="WRIfh3sDyCiLUNuFMf4n-71" edge="1">
                    <mxGeometry relative="1" as="geometry">
                        <mxPoint x="-715" y="-900" as="targetPoint"/>
                    </mxGeometry>
                </mxCell>
                <mxCell id="WRIfh3sDyCiLUNuFMf4n-71" value="แสดง&lt;div&gt;สินค้าหมด&lt;/div&gt;" style="shape=parallelogram;perimeter=parallelogramPerimeter;whiteSpace=wrap;html=1;fixedSize=1;fontSize=10;" parent="1" vertex="1">
                    <mxGeometry x="-764" y="-747.81" width="98" height="30" as="geometry"/>
                </mxCell>
                <mxCell id="WRIfh3sDyCiLUNuFMf4n-91" value="" style="edgeStyle=orthogonalEdgeStyle;rounded=0;orthogonalLoop=1;jettySize=auto;html=1;entryX=0;entryY=0.5;entryDx=0;entryDy=0;" parent="1" target="of-Or63fq2WvLNfduHY4-184" edge="1">
                    <mxGeometry relative="1" as="geometry">
                        <mxPoint x="-1788" y="-152.5" as="sourcePoint"/>
                        <mxPoint x="-1370" y="-152.5" as="targetPoint"/>
                        <Array as="points">
                            <mxPoint x="-1788" y="-132"/>
                        </Array>
                    </mxGeometry>
                </mxCell>
                <mxCell id="WRIfh3sDyCiLUNuFMf4n-111" value="" style="edgeStyle=orthogonalEdgeStyle;rounded=0;orthogonalLoop=1;jettySize=auto;html=1;exitX=0.308;exitY=0.633;exitDx=0;exitDy=0;exitPerimeter=0;" parent="1" edge="1">
                    <mxGeometry relative="1" as="geometry">
                        <mxPoint x="-715" y="-900" as="sourcePoint"/>
                        <mxPoint x="-1443.5000000000005" y="-900" as="targetPoint"/>
                    </mxGeometry>
                </mxCell>
                <mxCell id="WRIfh3sDyCiLUNuFMf4n-113" value="g=g-1" style="whiteSpace=wrap;html=1;fontSize=10;" parent="1" vertex="1">
                    <mxGeometry x="-865" y="-300" width="120" height="30" as="geometry"/>
                </mxCell>
                <mxCell id="4r5OtbxDzH6CqMdZdlSV-19" value="" style="edgeStyle=orthogonalEdgeStyle;rounded=0;orthogonalLoop=1;jettySize=auto;html=1;entryX=0.5;entryY=0;entryDx=0;entryDy=0;" parent="1" source="4r5OtbxDzH6CqMdZdlSV-13" target="4r5OtbxDzH6CqMdZdlSV-18" edge="1">
                    <mxGeometry relative="1" as="geometry"/>
                </mxCell>
                <mxCell id="4r5OtbxDzH6CqMdZdlSV-21" value="ใช่" style="edgeLabel;html=1;align=center;verticalAlign=middle;resizable=0;points=[];" parent="4r5OtbxDzH6CqMdZdlSV-19" vertex="1" connectable="0">
                    <mxGeometry x="-0.2087" relative="1" as="geometry">
                        <mxPoint as="offset"/>
                    </mxGeometry>
                </mxCell>
                <mxCell id="4r5OtbxDzH6CqMdZdlSV-23" value="" style="edgeStyle=orthogonalEdgeStyle;rounded=0;orthogonalLoop=1;jettySize=auto;html=1;entryX=0.5;entryY=0;entryDx=0;entryDy=0;" parent="1" source="4r5OtbxDzH6CqMdZdlSV-13" target="4r5OtbxDzH6CqMdZdlSV-22" edge="1">
                    <mxGeometry relative="1" as="geometry">
                        <Array as="points">
                            <mxPoint x="-1428" y="385"/>
                            <mxPoint x="-1428" y="410"/>
                        </Array>
                    </mxGeometry>
                </mxCell>
                <mxCell id="4r5OtbxDzH6CqMdZdlSV-27" value="ไม่" style="edgeLabel;html=1;align=center;verticalAlign=middle;resizable=0;points=[];" parent="4r5OtbxDzH6CqMdZdlSV-23" vertex="1" connectable="0">
                    <mxGeometry x="-0.3931" relative="1" as="geometry">
                        <mxPoint as="offset"/>
                    </mxGeometry>
                </mxCell>
                <mxCell id="4r5OtbxDzH6CqMdZdlSV-13" value="ยกเลิกเมล็ดทานตะวัน&lt;div&gt;หรือไม่&lt;/div&gt;" style="rhombus;whiteSpace=wrap;html=1;fontSize=11;" parent="1" vertex="1">
                    <mxGeometry x="-1568" y="340" width="93" height="90" as="geometry"/>
                </mxCell>
                <mxCell id="4r5OtbxDzH6CqMdZdlSV-59" value="" style="edgeStyle=orthogonalEdgeStyle;rounded=0;orthogonalLoop=1;jettySize=auto;html=1;" parent="1" source="4r5OtbxDzH6CqMdZdlSV-18" target="4r5OtbxDzH6CqMdZdlSV-58" edge="1">
                    <mxGeometry relative="1" as="geometry"/>
                </mxCell>
                <mxCell id="4r5OtbxDzH6CqMdZdlSV-18" value="ทานตะวัน=ทานตะวัน-1" style="whiteSpace=wrap;html=1;fontSize=11;" parent="1" vertex="1">
                    <mxGeometry x="-1725" y="410" width="110" height="30" as="geometry"/>
                </mxCell>
                <mxCell id="4r5OtbxDzH6CqMdZdlSV-26" value="" style="edgeStyle=orthogonalEdgeStyle;rounded=0;orthogonalLoop=1;jettySize=auto;html=1;entryX=0.5;entryY=0;entryDx=0;entryDy=0;" parent="1" source="4r5OtbxDzH6CqMdZdlSV-22" target="4r5OtbxDzH6CqMdZdlSV-25" edge="1">
                    <mxGeometry relative="1" as="geometry"/>
                </mxCell>
                <mxCell id="4r5OtbxDzH6CqMdZdlSV-28" value="ใช่" style="edgeLabel;html=1;align=center;verticalAlign=middle;resizable=0;points=[];" parent="4r5OtbxDzH6CqMdZdlSV-26" vertex="1" connectable="0">
                    <mxGeometry x="-0.2795" y="-1" relative="1" as="geometry">
                        <mxPoint as="offset"/>
                    </mxGeometry>
                </mxCell>
                <mxCell id="4r5OtbxDzH6CqMdZdlSV-30" value="" style="edgeStyle=orthogonalEdgeStyle;rounded=0;orthogonalLoop=1;jettySize=auto;html=1;entryX=0.5;entryY=0;entryDx=0;entryDy=0;" parent="1" source="4r5OtbxDzH6CqMdZdlSV-22" target="4r5OtbxDzH6CqMdZdlSV-29" edge="1">
                    <mxGeometry relative="1" as="geometry"/>
                </mxCell>
                <mxCell id="4r5OtbxDzH6CqMdZdlSV-31" value="ไม่" style="edgeLabel;html=1;align=center;verticalAlign=middle;resizable=0;points=[];" parent="4r5OtbxDzH6CqMdZdlSV-30" vertex="1" connectable="0">
                    <mxGeometry x="-0.3548" y="-1" relative="1" as="geometry">
                        <mxPoint as="offset"/>
                    </mxGeometry>
                </mxCell>
                <mxCell id="4r5OtbxDzH6CqMdZdlSV-22" value="ยกเลิกถั่วแปบ&lt;div&gt;หรือไม่&lt;/div&gt;" style="rhombus;whiteSpace=wrap;html=1;fontSize=11;" parent="1" vertex="1">
                    <mxGeometry x="-1474" y="410" width="93" height="90" as="geometry"/>
                </mxCell>
                <mxCell id="4r5OtbxDzH6CqMdZdlSV-61" value="" style="edgeStyle=orthogonalEdgeStyle;rounded=0;orthogonalLoop=1;jettySize=auto;html=1;" parent="1" source="4r5OtbxDzH6CqMdZdlSV-25" target="4r5OtbxDzH6CqMdZdlSV-60" edge="1">
                    <mxGeometry relative="1" as="geometry"/>
                </mxCell>
                <mxCell id="4r5OtbxDzH6CqMdZdlSV-25" value="ถั่ว=ถั่ว-1" style="whiteSpace=wrap;html=1;fontSize=11;" parent="1" vertex="1">
                    <mxGeometry x="-1598" y="480" width="100" height="30" as="geometry"/>
                </mxCell>
                <mxCell id="4r5OtbxDzH6CqMdZdlSV-37" value="" style="edgeStyle=orthogonalEdgeStyle;rounded=0;orthogonalLoop=1;jettySize=auto;html=1;entryX=0.5;entryY=0;entryDx=0;entryDy=0;" parent="1" source="4r5OtbxDzH6CqMdZdlSV-29" target="4r5OtbxDzH6CqMdZdlSV-36" edge="1">
                    <mxGeometry relative="1" as="geometry"/>
                </mxCell>
                <mxCell id="4r5OtbxDzH6CqMdZdlSV-38" value="ใช่" style="edgeLabel;html=1;align=center;verticalAlign=middle;resizable=0;points=[];" parent="4r5OtbxDzH6CqMdZdlSV-37" vertex="1" connectable="0">
                    <mxGeometry x="-0.3979" y="-1" relative="1" as="geometry">
                        <mxPoint as="offset"/>
                    </mxGeometry>
                </mxCell>
                <mxCell id="4r5OtbxDzH6CqMdZdlSV-40" value="" style="edgeStyle=orthogonalEdgeStyle;rounded=0;orthogonalLoop=1;jettySize=auto;html=1;entryX=0.5;entryY=0;entryDx=0;entryDy=0;" parent="1" source="4r5OtbxDzH6CqMdZdlSV-29" target="4r5OtbxDzH6CqMdZdlSV-39" edge="1">
                    <mxGeometry relative="1" as="geometry"/>
                </mxCell>
                <mxCell id="4r5OtbxDzH6CqMdZdlSV-44" value="ไม่" style="edgeLabel;html=1;align=center;verticalAlign=middle;resizable=0;points=[];" parent="4r5OtbxDzH6CqMdZdlSV-40" vertex="1" connectable="0">
                    <mxGeometry x="-0.4212" y="1" relative="1" as="geometry">
                        <mxPoint as="offset"/>
                    </mxGeometry>
                </mxCell>
                <mxCell id="4r5OtbxDzH6CqMdZdlSV-29" value="ยกเลิก&lt;div&gt;จิ้นส้มหมก&lt;div&gt;หรือไม่&lt;/div&gt;&lt;/div&gt;" style="rhombus;whiteSpace=wrap;html=1;fontSize=11;" parent="1" vertex="1">
                    <mxGeometry x="-1374" y="480" width="93" height="90" as="geometry"/>
                </mxCell>
                <mxCell id="4r5OtbxDzH6CqMdZdlSV-34" value="" style="edgeStyle=orthogonalEdgeStyle;rounded=0;orthogonalLoop=1;jettySize=auto;html=1;exitX=0.5;exitY=1;exitDx=0;exitDy=0;" parent="1" source="4r5OtbxDzH6CqMdZdlSV-32" target="of-Or63fq2WvLNfduHY4-204" edge="1">
                    <mxGeometry relative="1" as="geometry"/>
                </mxCell>
                <mxCell id="4r5OtbxDzH6CqMdZdlSV-32" value="แสดง&lt;div&gt;&lt;div style=&quot;&quot;&gt;&lt;span style=&quot;background-color: transparent; color: light-dark(rgb(0, 0, 0), rgb(255, 255, 255));&quot;&gt;เมล็ดทานตะวัน:ทานตะวัน ชิ้น&lt;/span&gt;&lt;/div&gt;&lt;div style=&quot;&quot;&gt;&amp;nbsp;ถั่วแปบ:ถั่ว ชิ้น&lt;/div&gt;&lt;div style=&quot;&quot;&gt;&amp;nbsp;จิ้นส้มหมก:จิ้นส้ม ชิ้น&lt;/div&gt;&lt;div style=&quot;&quot;&gt;&lt;span style=&quot;background-color: transparent; color: light-dark(rgb(0, 0, 0), rgb(255, 255, 255));&quot;&gt;&amp;nbsp; &amp;nbsp; &amp;nbsp; &amp;nbsp; โค้กกระป๋อง:โค้ก ชิ้น&amp;nbsp; &amp;nbsp; &amp;nbsp; &amp;nbsp; &amp;nbsp; &amp;nbsp;&lt;/span&gt;&lt;/div&gt;&lt;div style=&quot;&quot;&gt;&lt;span style=&quot;background-color: transparent; color: light-dark(rgb(0, 0, 0), rgb(255, 255, 255));&quot;&gt;น้ำเขียวกระป๋อง:น้ำเขียว ชิ้น&amp;nbsp; &amp;nbsp;&lt;/span&gt;&lt;/div&gt;&lt;div style=&quot;&quot;&gt;&lt;span style=&quot;background-color: transparent; color: light-dark(rgb(0, 0, 0), rgb(255, 255, 255));&quot;&gt;&amp;nbsp;อเมริกาโน่:อเมริ ชิ้น&lt;/span&gt;&lt;/div&gt;&lt;div style=&quot;&quot;&gt;&lt;span style=&quot;background-color: transparent; color: light-dark(rgb(0, 0, 0), rgb(255, 255, 255));&quot;&gt;&amp;nbsp; &amp;nbsp; &amp;nbsp; &amp;nbsp; ลาเต้หวานเจี๊ยบ: ลาเต้ ชิ้น&amp;nbsp;&amp;nbsp;&lt;/span&gt;&lt;span style=&quot;background-color: transparent; color: light-dark(rgb(0, 0, 0), rgb(255, 255, 255));&quot;&gt;&amp;nbsp; &amp;nbsp; &amp;nbsp; &amp;nbsp; &amp;nbsp; &amp;nbsp;&lt;/span&gt;&lt;/div&gt;&lt;/div&gt;" style="shape=parallelogram;perimeter=parallelogramPerimeter;whiteSpace=wrap;html=1;fixedSize=1;align=center;" parent="1" vertex="1">
                    <mxGeometry x="-1365" width="215" height="120" as="geometry"/>
                </mxCell>
                <mxCell id="4r5OtbxDzH6CqMdZdlSV-63" value="" style="edgeStyle=orthogonalEdgeStyle;rounded=0;orthogonalLoop=1;jettySize=auto;html=1;" parent="1" source="4r5OtbxDzH6CqMdZdlSV-36" target="4r5OtbxDzH6CqMdZdlSV-62" edge="1">
                    <mxGeometry relative="1" as="geometry"/>
                </mxCell>
                <mxCell id="4r5OtbxDzH6CqMdZdlSV-36" value="จิ้นส้ม=จิ้นส้ม-1" style="whiteSpace=wrap;html=1;fontSize=11;" parent="1" vertex="1">
                    <mxGeometry x="-1490" y="550" width="100" height="30" as="geometry"/>
                </mxCell>
                <mxCell id="4r5OtbxDzH6CqMdZdlSV-42" value="" style="edgeStyle=orthogonalEdgeStyle;rounded=0;orthogonalLoop=1;jettySize=auto;html=1;entryX=0.5;entryY=0;entryDx=0;entryDy=0;" parent="1" source="4r5OtbxDzH6CqMdZdlSV-39" target="4r5OtbxDzH6CqMdZdlSV-41" edge="1">
                    <mxGeometry relative="1" as="geometry"/>
                </mxCell>
                <mxCell id="4r5OtbxDzH6CqMdZdlSV-43" value="ใช่" style="edgeLabel;html=1;align=center;verticalAlign=middle;resizable=0;points=[];" parent="4r5OtbxDzH6CqMdZdlSV-42" vertex="1" connectable="0">
                    <mxGeometry x="-0.3022" relative="1" as="geometry">
                        <mxPoint as="offset"/>
                    </mxGeometry>
                </mxCell>
                <mxCell id="4r5OtbxDzH6CqMdZdlSV-46" value="" style="edgeStyle=orthogonalEdgeStyle;rounded=0;orthogonalLoop=1;jettySize=auto;html=1;entryX=0.5;entryY=0;entryDx=0;entryDy=0;" parent="1" source="4r5OtbxDzH6CqMdZdlSV-39" target="4r5OtbxDzH6CqMdZdlSV-45" edge="1">
                    <mxGeometry relative="1" as="geometry"/>
                </mxCell>
                <mxCell id="4r5OtbxDzH6CqMdZdlSV-47" value="ไม่" style="edgeLabel;html=1;align=center;verticalAlign=middle;resizable=0;points=[];" parent="4r5OtbxDzH6CqMdZdlSV-46" vertex="1" connectable="0">
                    <mxGeometry x="-0.3604" y="-1" relative="1" as="geometry">
                        <mxPoint as="offset"/>
                    </mxGeometry>
                </mxCell>
                <mxCell id="4r5OtbxDzH6CqMdZdlSV-39" value="ยกเลิก&lt;div&gt;โค้กกระป๋อง&lt;br&gt;&lt;div&gt;หรือไม่&lt;/div&gt;&lt;/div&gt;" style="rhombus;whiteSpace=wrap;html=1;fontSize=11;" parent="1" vertex="1">
                    <mxGeometry x="-1271" y="550" width="93" height="90" as="geometry"/>
                </mxCell>
                <mxCell id="4r5OtbxDzH6CqMdZdlSV-65" value="" style="edgeStyle=orthogonalEdgeStyle;rounded=0;orthogonalLoop=1;jettySize=auto;html=1;" parent="1" source="4r5OtbxDzH6CqMdZdlSV-41" target="4r5OtbxDzH6CqMdZdlSV-64" edge="1">
                    <mxGeometry relative="1" as="geometry"/>
                </mxCell>
                <mxCell id="4r5OtbxDzH6CqMdZdlSV-41" value="โค้ก=โค้ก-1" style="whiteSpace=wrap;html=1;fontSize=11;" parent="1" vertex="1">
                    <mxGeometry x="-1381" y="620" width="100" height="30" as="geometry"/>
                </mxCell>
                <mxCell id="4r5OtbxDzH6CqMdZdlSV-50" value="" style="edgeStyle=orthogonalEdgeStyle;rounded=0;orthogonalLoop=1;jettySize=auto;html=1;entryX=0.5;entryY=0;entryDx=0;entryDy=0;" parent="1" source="4r5OtbxDzH6CqMdZdlSV-45" target="4r5OtbxDzH6CqMdZdlSV-49" edge="1">
                    <mxGeometry relative="1" as="geometry"/>
                </mxCell>
                <mxCell id="4r5OtbxDzH6CqMdZdlSV-51" value="ใช่" style="edgeLabel;html=1;align=center;verticalAlign=middle;resizable=0;points=[];" parent="4r5OtbxDzH6CqMdZdlSV-50" vertex="1" connectable="0">
                    <mxGeometry x="-0.2978" y="-2" relative="1" as="geometry">
                        <mxPoint as="offset"/>
                    </mxGeometry>
                </mxCell>
                <mxCell id="4r5OtbxDzH6CqMdZdlSV-53" value="" style="edgeStyle=orthogonalEdgeStyle;rounded=0;orthogonalLoop=1;jettySize=auto;html=1;entryX=0.5;entryY=0;entryDx=0;entryDy=0;" parent="1" source="4r5OtbxDzH6CqMdZdlSV-45" target="4r5OtbxDzH6CqMdZdlSV-52" edge="1">
                    <mxGeometry relative="1" as="geometry"/>
                </mxCell>
                <mxCell id="4r5OtbxDzH6CqMdZdlSV-54" value="ไม่" style="edgeLabel;html=1;align=center;verticalAlign=middle;resizable=0;points=[];" parent="4r5OtbxDzH6CqMdZdlSV-53" vertex="1" connectable="0">
                    <mxGeometry x="-0.4182" relative="1" as="geometry">
                        <mxPoint as="offset"/>
                    </mxGeometry>
                </mxCell>
                <mxCell id="4r5OtbxDzH6CqMdZdlSV-45" value="ยกเลิก&lt;div&gt;น้ำเขียวกระป๋อง&lt;br&gt;&lt;div&gt;หรือไม่&lt;/div&gt;&lt;/div&gt;" style="rhombus;whiteSpace=wrap;html=1;fontSize=11;" parent="1" vertex="1">
                    <mxGeometry x="-1168" y="620" width="93" height="90" as="geometry"/>
                </mxCell>
                <mxCell id="4r5OtbxDzH6CqMdZdlSV-67" value="" style="edgeStyle=orthogonalEdgeStyle;rounded=0;orthogonalLoop=1;jettySize=auto;html=1;" parent="1" source="4r5OtbxDzH6CqMdZdlSV-49" target="4r5OtbxDzH6CqMdZdlSV-66" edge="1">
                    <mxGeometry relative="1" as="geometry"/>
                </mxCell>
                <mxCell id="4r5OtbxDzH6CqMdZdlSV-49" value="น้ำเขียว=น้ำเขียว-1" style="whiteSpace=wrap;html=1;fontSize=11;" parent="1" vertex="1">
                    <mxGeometry x="-1271" y="700" width="100" height="30" as="geometry"/>
                </mxCell>
                <mxCell id="4r5OtbxDzH6CqMdZdlSV-56" value="" style="edgeStyle=orthogonalEdgeStyle;rounded=0;orthogonalLoop=1;jettySize=auto;html=1;entryX=0.5;entryY=0;entryDx=0;entryDy=0;exitX=0;exitY=0.5;exitDx=0;exitDy=0;" parent="1" source="4r5OtbxDzH6CqMdZdlSV-52" target="4r5OtbxDzH6CqMdZdlSV-55" edge="1">
                    <mxGeometry relative="1" as="geometry"/>
                </mxCell>
                <mxCell id="4r5OtbxDzH6CqMdZdlSV-57" value="ใช่" style="edgeLabel;html=1;align=center;verticalAlign=middle;resizable=0;points=[];" parent="4r5OtbxDzH6CqMdZdlSV-56" vertex="1" connectable="0">
                    <mxGeometry x="-0.3321" y="-1" relative="1" as="geometry">
                        <mxPoint as="offset"/>
                    </mxGeometry>
                </mxCell>
                <mxCell id="4r5OtbxDzH6CqMdZdlSV-109" value="" style="edgeStyle=orthogonalEdgeStyle;rounded=0;orthogonalLoop=1;jettySize=auto;html=1;entryX=0.5;entryY=0;entryDx=0;entryDy=0;" parent="1" source="4r5OtbxDzH6CqMdZdlSV-52" target="4r5OtbxDzH6CqMdZdlSV-108" edge="1">
                    <mxGeometry relative="1" as="geometry"/>
                </mxCell>
                <mxCell id="4r5OtbxDzH6CqMdZdlSV-110" value="ไม่" style="edgeLabel;html=1;align=center;verticalAlign=middle;resizable=0;points=[];" parent="4r5OtbxDzH6CqMdZdlSV-109" vertex="1" connectable="0">
                    <mxGeometry x="-0.4" y="2" relative="1" as="geometry">
                        <mxPoint x="-1" as="offset"/>
                    </mxGeometry>
                </mxCell>
                <mxCell id="4r5OtbxDzH6CqMdZdlSV-52" value="ยกเลิก&lt;div&gt;&lt;div&gt;อเมริกาโน&lt;/div&gt;&lt;div&gt;หรือไม่&lt;/div&gt;&lt;/div&gt;" style="rhombus;whiteSpace=wrap;html=1;fontSize=11;" parent="1" vertex="1">
                    <mxGeometry x="-1068" y="690" width="93" height="90" as="geometry"/>
                </mxCell>
                <mxCell id="4r5OtbxDzH6CqMdZdlSV-69" value="" style="edgeStyle=orthogonalEdgeStyle;rounded=0;orthogonalLoop=1;jettySize=auto;html=1;" parent="1" source="4r5OtbxDzH6CqMdZdlSV-55" target="4r5OtbxDzH6CqMdZdlSV-68" edge="1">
                    <mxGeometry relative="1" as="geometry"/>
                </mxCell>
                <mxCell id="4r5OtbxDzH6CqMdZdlSV-55" value="อเมริ=อเมริ-1" style="whiteSpace=wrap;html=1;fontSize=11;" parent="1" vertex="1">
                    <mxGeometry x="-1150" y="770" width="100" height="30" as="geometry"/>
                </mxCell>
                <mxCell id="4r5OtbxDzH6CqMdZdlSV-71" value="" style="edgeStyle=orthogonalEdgeStyle;rounded=0;orthogonalLoop=1;jettySize=auto;html=1;" parent="1" source="4r5OtbxDzH6CqMdZdlSV-58" target="4r5OtbxDzH6CqMdZdlSV-70" edge="1">
                    <mxGeometry relative="1" as="geometry"/>
                </mxCell>
                <mxCell id="4r5OtbxDzH6CqMdZdlSV-58" value="a=a+1" style="whiteSpace=wrap;html=1;fontSize=11;" parent="1" vertex="1">
                    <mxGeometry x="-1720" y="460" width="100" height="30" as="geometry"/>
                </mxCell>
                <mxCell id="4r5OtbxDzH6CqMdZdlSV-73" value="" style="edgeStyle=orthogonalEdgeStyle;rounded=0;orthogonalLoop=1;jettySize=auto;html=1;entryX=1;entryY=0;entryDx=0;entryDy=0;" parent="1" source="4r5OtbxDzH6CqMdZdlSV-60" target="4r5OtbxDzH6CqMdZdlSV-70" edge="1">
                    <mxGeometry relative="1" as="geometry">
                        <mxPoint x="-1552.5" y="680" as="targetPoint"/>
                        <Array as="points">
                            <mxPoint x="-1570" y="835"/>
                        </Array>
                    </mxGeometry>
                </mxCell>
                <mxCell id="4r5OtbxDzH6CqMdZdlSV-60" value="b=b+1" style="whiteSpace=wrap;html=1;fontSize=11;" parent="1" vertex="1">
                    <mxGeometry x="-1602.5" y="530" width="100" height="30" as="geometry"/>
                </mxCell>
                <mxCell id="4r5OtbxDzH6CqMdZdlSV-75" value="" style="edgeStyle=orthogonalEdgeStyle;rounded=0;orthogonalLoop=1;jettySize=auto;html=1;entryX=1;entryY=0.5;entryDx=0;entryDy=0;" parent="1" source="4r5OtbxDzH6CqMdZdlSV-62" target="4r5OtbxDzH6CqMdZdlSV-70" edge="1">
                    <mxGeometry relative="1" as="geometry">
                        <mxPoint x="-1440" y="725" as="targetPoint"/>
                        <Array as="points">
                            <mxPoint x="-1450" y="848"/>
                        </Array>
                    </mxGeometry>
                </mxCell>
                <mxCell id="4r5OtbxDzH6CqMdZdlSV-62" value="c=c+1" style="whiteSpace=wrap;html=1;fontSize=11;" parent="1" vertex="1">
                    <mxGeometry x="-1490" y="600" width="100" height="30" as="geometry"/>
                </mxCell>
                <mxCell id="4r5OtbxDzH6CqMdZdlSV-77" value="" style="edgeStyle=orthogonalEdgeStyle;rounded=0;orthogonalLoop=1;jettySize=auto;html=1;entryX=1;entryY=1;entryDx=0;entryDy=0;" parent="1" source="4r5OtbxDzH6CqMdZdlSV-64" target="4r5OtbxDzH6CqMdZdlSV-70" edge="1">
                    <mxGeometry relative="1" as="geometry">
                        <mxPoint x="-1331" y="795" as="targetPoint"/>
                        <Array as="points">
                            <mxPoint x="-1331" y="860"/>
                        </Array>
                    </mxGeometry>
                </mxCell>
                <mxCell id="4r5OtbxDzH6CqMdZdlSV-64" value="d=d+1" style="whiteSpace=wrap;html=1;fontSize=11;" parent="1" vertex="1">
                    <mxGeometry x="-1381" y="670" width="100" height="30" as="geometry"/>
                </mxCell>
                <mxCell id="4r5OtbxDzH6CqMdZdlSV-79" value="" style="edgeStyle=orthogonalEdgeStyle;rounded=0;orthogonalLoop=1;jettySize=auto;html=1;entryX=1;entryY=1;entryDx=0;entryDy=0;" parent="1" source="4r5OtbxDzH6CqMdZdlSV-66" target="4r5OtbxDzH6CqMdZdlSV-70" edge="1">
                    <mxGeometry relative="1" as="geometry">
                        <mxPoint x="-1247.5" y="920" as="targetPoint"/>
                        <Array as="points">
                            <mxPoint x="-1221" y="880"/>
                            <mxPoint x="-1658" y="880"/>
                        </Array>
                    </mxGeometry>
                </mxCell>
                <mxCell id="4r5OtbxDzH6CqMdZdlSV-66" value="e=e+1" style="whiteSpace=wrap;html=1;fontSize=11;" parent="1" vertex="1">
                    <mxGeometry x="-1271" y="760" width="100" height="30" as="geometry"/>
                </mxCell>
                <mxCell id="4r5OtbxDzH6CqMdZdlSV-81" value="" style="edgeStyle=orthogonalEdgeStyle;rounded=0;orthogonalLoop=1;jettySize=auto;html=1;entryX=0.5;entryY=1;entryDx=0;entryDy=0;" parent="1" source="4r5OtbxDzH6CqMdZdlSV-68" target="4r5OtbxDzH6CqMdZdlSV-70" edge="1">
                    <mxGeometry relative="1" as="geometry">
                        <mxPoint x="-1100" y="955" as="targetPoint"/>
                        <Array as="points">
                            <mxPoint x="-1100" y="910"/>
                            <mxPoint x="-1670" y="910"/>
                        </Array>
                    </mxGeometry>
                </mxCell>
                <mxCell id="4r5OtbxDzH6CqMdZdlSV-68" value="f=f+1" style="whiteSpace=wrap;html=1;fontSize=11;" parent="1" vertex="1">
                    <mxGeometry x="-1150" y="830" width="100" height="30" as="geometry"/>
                </mxCell>
                <mxCell id="4r5OtbxDzH6CqMdZdlSV-98" value="" style="edgeStyle=orthogonalEdgeStyle;rounded=0;orthogonalLoop=1;jettySize=auto;html=1;entryX=0.5;entryY=1;entryDx=0;entryDy=0;" parent="1" source="4r5OtbxDzH6CqMdZdlSV-70" target="4r5OtbxDzH6CqMdZdlSV-96" edge="1">
                    <mxGeometry relative="1" as="geometry">
                        <mxPoint x="-2090" y="525" as="targetPoint"/>
                    </mxGeometry>
                </mxCell>
                <mxCell id="4r5OtbxDzH6CqMdZdlSV-70" value="" style="ellipse;whiteSpace=wrap;html=1;fontSize=11;" parent="1" vertex="1">
                    <mxGeometry x="-1687.5" y="830" width="35" height="35" as="geometry"/>
                </mxCell>
                <mxCell id="4r5OtbxDzH6CqMdZdlSV-88" value="" style="edgeStyle=orthogonalEdgeStyle;rounded=0;orthogonalLoop=1;jettySize=auto;html=1;" parent="1" edge="1">
                    <mxGeometry relative="1" as="geometry">
                        <mxPoint x="-2040" y="160" as="sourcePoint"/>
                        <mxPoint x="-2040" y="160" as="targetPoint"/>
                    </mxGeometry>
                </mxCell>
                <mxCell id="4r5OtbxDzH6CqMdZdlSV-100" value="" style="edgeStyle=orthogonalEdgeStyle;rounded=0;orthogonalLoop=1;jettySize=auto;html=1;exitDx=0;exitDy=0;" parent="1" edge="1">
                    <mxGeometry relative="1" as="geometry">
                        <mxPoint x="-1255" y="-19.999999999999545" as="sourcePoint"/>
                        <mxPoint x="-1256" y="-20" as="targetPoint"/>
                        <Array as="points"/>
                    </mxGeometry>
                </mxCell>
                <mxCell id="4r5OtbxDzH6CqMdZdlSV-96" value="&lt;font&gt;แสดง&lt;/font&gt;&lt;div style=&quot;text-align: left;&quot;&gt;&lt;font face=&quot;Sarabun&quot;&gt;&lt;span style=&quot;text-wrap-mode: nowrap;&quot;&gt;ท่านยกเลิกสินค้าสำเร็จ&lt;/span&gt;&lt;/font&gt;&lt;/div&gt;" style="shape=parallelogram;perimeter=parallelogramPerimeter;whiteSpace=wrap;html=1;fixedSize=1;fontSize=10;" parent="1" vertex="1">
                    <mxGeometry x="-2150" y="410" width="170" height="57.19" as="geometry"/>
                </mxCell>
                <mxCell id="4r5OtbxDzH6CqMdZdlSV-113" value="" style="edgeStyle=orthogonalEdgeStyle;rounded=0;orthogonalLoop=1;jettySize=auto;html=1;" parent="1" source="4r5OtbxDzH6CqMdZdlSV-108" target="4r5OtbxDzH6CqMdZdlSV-112" edge="1">
                    <mxGeometry relative="1" as="geometry">
                        <Array as="points">
                            <mxPoint x="-980" y="805"/>
                        </Array>
                    </mxGeometry>
                </mxCell>
                <mxCell id="4r5OtbxDzH6CqMdZdlSV-120" value="ใช่" style="edgeLabel;html=1;align=center;verticalAlign=middle;resizable=0;points=[];" parent="4r5OtbxDzH6CqMdZdlSV-113" vertex="1" connectable="0">
                    <mxGeometry x="-0.517" relative="1" as="geometry">
                        <mxPoint as="offset"/>
                    </mxGeometry>
                </mxCell>
                <mxCell id="5" value="" style="edgeStyle=orthogonalEdgeStyle;html=1;entryX=0.5;entryY=0;entryDx=0;entryDy=0;rounded=0;curved=0;" parent="1" source="4r5OtbxDzH6CqMdZdlSV-108" target="2" edge="1">
                    <mxGeometry relative="1" as="geometry"/>
                </mxCell>
                <mxCell id="6" value="ไม่" style="edgeLabel;html=1;align=center;verticalAlign=middle;resizable=0;points=[];" parent="5" vertex="1" connectable="0">
                    <mxGeometry x="-0.3531" y="-2" relative="1" as="geometry">
                        <mxPoint as="offset"/>
                    </mxGeometry>
                </mxCell>
                <mxCell id="4r5OtbxDzH6CqMdZdlSV-108" value="ยกเลิก&lt;div&gt;&lt;div&gt;ลาเต้หวานเจี๊ยบ&lt;/div&gt;&lt;div&gt;หรือไม่&lt;/div&gt;&lt;/div&gt;" style="rhombus;whiteSpace=wrap;html=1;fontSize=11;" parent="1" vertex="1">
                    <mxGeometry x="-941.5" y="760" width="93" height="90" as="geometry"/>
                </mxCell>
                <mxCell id="4r5OtbxDzH6CqMdZdlSV-115" value="" style="edgeStyle=orthogonalEdgeStyle;rounded=0;orthogonalLoop=1;jettySize=auto;html=1;" parent="1" source="4r5OtbxDzH6CqMdZdlSV-112" target="4r5OtbxDzH6CqMdZdlSV-114" edge="1">
                    <mxGeometry relative="1" as="geometry"/>
                </mxCell>
                <mxCell id="4r5OtbxDzH6CqMdZdlSV-112" value="ลาเต้=ลาเต้-1" style="whiteSpace=wrap;html=1;fontSize=11;" parent="1" vertex="1">
                    <mxGeometry x="-1035" y="840" width="100" height="30" as="geometry"/>
                </mxCell>
                <mxCell id="4r5OtbxDzH6CqMdZdlSV-117" value="" style="edgeStyle=orthogonalEdgeStyle;rounded=0;orthogonalLoop=1;jettySize=auto;html=1;entryX=0;entryY=1;entryDx=0;entryDy=0;exitX=0.5;exitY=1;exitDx=0;exitDy=0;" parent="1" source="4r5OtbxDzH6CqMdZdlSV-114" target="4r5OtbxDzH6CqMdZdlSV-70" edge="1">
                    <mxGeometry relative="1" as="geometry">
                        <mxPoint x="-1034.9999999999998" y="905.9099999999995" as="sourcePoint"/>
                        <mxPoint x="-1678.5400000000002" y="865.0000000000001" as="targetPoint"/>
                        <Array as="points">
                            <mxPoint x="-985" y="930"/>
                            <mxPoint x="-1682" y="930"/>
                        </Array>
                    </mxGeometry>
                </mxCell>
                <mxCell id="4r5OtbxDzH6CqMdZdlSV-114" value="g=g+1" style="whiteSpace=wrap;html=1;fontSize=11;" parent="1" vertex="1">
                    <mxGeometry x="-1035" y="890" width="100" height="30" as="geometry"/>
                </mxCell>
                <mxCell id="4r5OtbxDzH6CqMdZdlSV-125" value="" style="edgeStyle=orthogonalEdgeStyle;rounded=0;orthogonalLoop=1;jettySize=auto;html=1;" parent="1" edge="1">
                    <mxGeometry relative="1" as="geometry">
                        <mxPoint x="-1313.540857142857" y="285.03999999999996" as="sourcePoint"/>
                        <mxPoint x="-1444" y="-910" as="targetPoint"/>
                        <Array as="points">
                            <mxPoint x="-444" y="285"/>
                            <mxPoint x="-444" y="-910"/>
                        </Array>
                    </mxGeometry>
                </mxCell>
                <mxCell id="4r5OtbxDzH6CqMdZdlSV-127" value="ใช่" style="edgeLabel;html=1;align=center;verticalAlign=middle;resizable=0;points=[];" parent="4r5OtbxDzH6CqMdZdlSV-125" vertex="1" connectable="0">
                    <mxGeometry x="-0.9548" y="-1" relative="1" as="geometry">
                        <mxPoint as="offset"/>
                    </mxGeometry>
                </mxCell>
                <mxCell id="119" value="" style="edgeStyle=orthogonalEdgeStyle;html=1;exitX=0.5;exitY=1;exitDx=0;exitDy=0;rounded=0;curved=0;" parent="1" source="4r5OtbxDzH6CqMdZdlSV-122" edge="1">
                    <mxGeometry relative="1" as="geometry">
                        <mxPoint x="-1350" y="324" as="sourcePoint"/>
                        <mxPoint x="-790" y="940" as="targetPoint"/>
                        <Array as="points">
                            <mxPoint x="-1345" y="364"/>
                            <mxPoint x="-415" y="364"/>
                            <mxPoint x="-415" y="940"/>
                        </Array>
                    </mxGeometry>
                </mxCell>
                <mxCell id="120" value="ไม่" style="edgeLabel;html=1;align=center;verticalAlign=middle;resizable=0;points=[];" parent="119" vertex="1" connectable="0">
                    <mxGeometry x="-0.9803" y="-2" relative="1" as="geometry">
                        <mxPoint as="offset"/>
                    </mxGeometry>
                </mxCell>
                <mxCell id="4r5OtbxDzH6CqMdZdlSV-122" value="&lt;font style=&quot;font-size: 8px;&quot;&gt;ต้องการ&lt;/font&gt;&lt;div&gt;&lt;font style=&quot;font-size: 8px;&quot;&gt;เลือกสินค้าเพิ่มหรือไม่&lt;/font&gt;&lt;/div&gt;" style="rhombus;whiteSpace=wrap;html=1;" parent="1" vertex="1">
                    <mxGeometry x="-1381" y="250" width="71.5" height="70" as="geometry"/>
                </mxCell>
                <mxCell id="8" value="" style="edgeStyle=none;html=1;" parent="1" source="2" edge="1">
                    <mxGeometry relative="1" as="geometry">
                        <mxPoint x="-620.4999999999995" y="865" as="targetPoint"/>
                    </mxGeometry>
                </mxCell>
                <mxCell id="14" value="ใช่" style="edgeLabel;html=1;align=center;verticalAlign=middle;resizable=0;points=[];" parent="8" vertex="1" connectable="0">
                    <mxGeometry x="-0.4187" y="-3" relative="1" as="geometry">
                        <mxPoint as="offset"/>
                    </mxGeometry>
                </mxCell>
                <mxCell id="16" value="" style="edgeStyle=none;html=1;entryX=0.5;entryY=0;entryDx=0;entryDy=0;" parent="1" source="2" target="18" edge="1">
                    <mxGeometry relative="1" as="geometry">
                        <mxPoint x="-793.5" y="1005" as="targetPoint"/>
                    </mxGeometry>
                </mxCell>
                <mxCell id="17" value="ไม่" style="edgeLabel;html=1;align=center;verticalAlign=middle;resizable=0;points=[];" parent="16" vertex="1" connectable="0">
                    <mxGeometry x="-0.2615" y="-4" relative="1" as="geometry">
                        <mxPoint as="offset"/>
                    </mxGeometry>
                </mxCell>
                <mxCell id="2" value="&lt;font&gt;ต้องการ&lt;/font&gt;&lt;div&gt;&lt;font&gt;ยกเลิกสินค้า&lt;/font&gt;&lt;/div&gt;&lt;div&gt;&lt;font&gt;หรือไม่&lt;/font&gt;&lt;/div&gt;" style="rhombus;whiteSpace=wrap;html=1;fontSize=11;" parent="1" vertex="1">
                    <mxGeometry x="-840" y="820" width="93" height="90" as="geometry"/>
                </mxCell>
                <mxCell id="10" value="" style="edgeStyle=none;html=1;" parent="1" edge="1">
                    <mxGeometry relative="1" as="geometry">
                        <mxPoint x="-620.4999999999995" y="865" as="sourcePoint"/>
                        <mxPoint x="-610" y="-19.999999999999545" as="targetPoint"/>
                    </mxGeometry>
                </mxCell>
                <mxCell id="12" value="" style="edgeStyle=none;html=1;" parent="1" edge="1">
                    <mxGeometry relative="1" as="geometry">
                        <mxPoint x="-610" y="-19.999999999999545" as="sourcePoint"/>
                        <mxPoint x="-1255" y="-19.999999999999545" as="targetPoint"/>
                    </mxGeometry>
                </mxCell>
                <mxCell id="13" value="" style="edgeStyle=orthogonalEdgeStyle;rounded=0;orthogonalLoop=1;jettySize=auto;html=1;exitX=0.5;exitY=0;exitDx=0;exitDy=0;" parent="1" source="4r5OtbxDzH6CqMdZdlSV-96" edge="1">
                    <mxGeometry relative="1" as="geometry">
                        <mxPoint x="-2065" y="410" as="sourcePoint"/>
                        <mxPoint x="-1255" y="-19.999999999999545" as="targetPoint"/>
                        <Array as="points">
                            <mxPoint x="-2065" y="-20"/>
                        </Array>
                    </mxGeometry>
                </mxCell>
                <mxCell id="25" value="" style="edgeStyle=orthogonalEdgeStyle;html=1;entryX=0.5;entryY=0;entryDx=0;entryDy=0;rounded=0;curved=0;" parent="1" source="18" target="24" edge="1">
                    <mxGeometry relative="1" as="geometry"/>
                </mxCell>
                <mxCell id="18" value="ราคารวม=(ทานตะวัน*13)+(ถั่วแปบ*20)+(จิ้นส้ม*15)+(โค้ก*10)+(น้ำเขียว+12)+(ลาเต้*35)+(อเมริ*30)" style="whiteSpace=wrap;html=1;fontSize=11;" parent="1" vertex="1">
                    <mxGeometry x="-871.88" y="950" width="156.75" height="60" as="geometry"/>
                </mxCell>
                <mxCell id="27" value="" style="edgeStyle=orthogonalEdgeStyle;html=1;rounded=0;entryX=0.5;entryY=0;entryDx=0;entryDy=0;" parent="1" source="24" target="26" edge="1">
                    <mxGeometry relative="1" as="geometry"/>
                </mxCell>
                <mxCell id="24" value="แสดง&lt;div&gt;ราคาสินค้าทั้งหมด:ราคารวม บาท&lt;/div&gt;" style="shape=parallelogram;perimeter=parallelogramPerimeter;whiteSpace=wrap;html=1;fixedSize=1;fontSize=11;" parent="1" vertex="1">
                    <mxGeometry x="-1046.88" y="1050" width="176.88" height="50" as="geometry"/>
                </mxCell>
                <mxCell id="34" value="" style="edgeStyle=orthogonalEdgeStyle;html=1;rounded=0;curved=0;" parent="1" source="26" edge="1">
                    <mxGeometry relative="1" as="geometry">
                        <mxPoint x="-1440" y="3640" as="targetPoint"/>
                        <Array as="points">
                            <mxPoint x="-2030" y="1170"/>
                            <mxPoint x="-2030" y="3640"/>
                        </Array>
                    </mxGeometry>
                </mxCell>
                <mxCell id="37" value="ไม่" style="edgeLabel;html=1;align=center;verticalAlign=middle;resizable=0;points=[];" parent="34" vertex="1" connectable="0">
                    <mxGeometry x="-0.7977" y="4" relative="1" as="geometry">
                        <mxPoint x="-55" y="-2" as="offset"/>
                    </mxGeometry>
                </mxCell>
                <mxCell id="35" value="" style="edgeStyle=none;html=1;" parent="1" source="26" target="32" edge="1">
                    <mxGeometry relative="1" as="geometry"/>
                </mxCell>
                <mxCell id="36" value="ใช่" style="edgeLabel;html=1;align=center;verticalAlign=middle;resizable=0;points=[];" parent="35" vertex="1" connectable="0">
                    <mxGeometry x="-0.2632" y="1" relative="1" as="geometry">
                        <mxPoint as="offset"/>
                    </mxGeometry>
                </mxCell>
                <mxCell id="26" value="ชำระเงินหรือไม่" style="rhombus;whiteSpace=wrap;html=1;fontSize=11;" parent="1" vertex="1">
                    <mxGeometry x="-1250" y="1130" width="80" height="80" as="geometry"/>
                </mxCell>
                <mxCell id="303" value="" style="edgeStyle=none;html=1;entryX=0.5;entryY=0;entryDx=0;entryDy=0;" parent="1" source="32" target="234" edge="1">
                    <mxGeometry relative="1" as="geometry">
                        <mxPoint x="-1210" y="1395" as="targetPoint"/>
                    </mxGeometry>
                </mxCell>
                <mxCell id="32" value="&lt;div&gt;แสดง&lt;/div&gt;กรุณาชำระเงิน" style="shape=parallelogram;perimeter=parallelogramPerimeter;whiteSpace=wrap;html=1;fixedSize=1;fontSize=11;" parent="1" vertex="1">
                    <mxGeometry x="-1288.25" y="1240" width="156.5" height="50" as="geometry"/>
                </mxCell>
                <mxCell id="233" value="" style="edgeStyle=none;html=1;" parent="1" source="234" target="236" edge="1">
                    <mxGeometry relative="1" as="geometry"/>
                </mxCell>
                <mxCell id="234" value="&lt;b&gt;รับเงินจากลูกค้า&lt;/b&gt;&lt;div&gt;&lt;b&gt;r1000,r500,r100,r50,r20,r10&lt;/b&gt;&lt;/div&gt;&lt;div&gt;&lt;b&gt;,r5,r2,r1&lt;/b&gt;&lt;/div&gt;" style="whiteSpace=wrap;html=1;fontStyle=0" parent="1" vertex="1">
                    <mxGeometry x="-1300" y="1360.01" width="180" height="45.39" as="geometry"/>
                </mxCell>
                <mxCell id="235" value="" style="edgeStyle=none;html=1;" parent="1" source="236" target="243" edge="1">
                    <mxGeometry relative="1" as="geometry"/>
                </mxCell>
                <mxCell id="236" value="cash= (r1000*1000)+(r500*500)+(r100*100)+(r50*50)+(r20*20)+(r10*10)+(r2*2)+(r1*1)" style="whiteSpace=wrap;html=1;fontStyle=0" parent="1" vertex="1">
                    <mxGeometry x="-1300" y="1440.01" width="180" height="45.39" as="geometry"/>
                </mxCell>
                <mxCell id="241" value="" style="edgeStyle=none;html=1;" parent="1" source="243" target="247" edge="1">
                    <mxGeometry relative="1" as="geometry"/>
                </mxCell>
                <mxCell id="242" value="ไม่" style="edgeLabel;html=1;align=center;verticalAlign=middle;resizable=0;points=[];" parent="241" vertex="1" connectable="0">
                    <mxGeometry x="-0.3215" y="1" relative="1" as="geometry">
                        <mxPoint as="offset"/>
                    </mxGeometry>
                </mxCell>
                <mxCell id="243" value="cash&amp;lt;=ราคารวม" style="rhombus;whiteSpace=wrap;html=1;fontStyle=0;" parent="1" vertex="1">
                    <mxGeometry x="-1250" y="1520.015" width="80" height="80" as="geometry"/>
                </mxCell>
                <mxCell id="244" value="" style="edgeStyle=none;html=1;" parent="1" source="245" target="254" edge="1">
                    <mxGeometry relative="1" as="geometry"/>
                </mxCell>
                <mxCell id="245" value="&lt;div&gt;รับเงินเข้าตู้&lt;/div&gt;s1000=s1000+r1000,&lt;span style=&quot;background-color: transparent;&quot;&gt;s500=s500+r500&lt;/span&gt;&lt;div&gt;s,100=s100+r100&lt;span style=&quot;background-color: transparent;&quot;&gt;,s50=s50+r50&lt;/span&gt;&lt;span style=&quot;background-color: transparent;&quot;&gt;,s20=s20+r20&lt;/span&gt;&lt;/div&gt;&lt;div&gt;,s10=s10+r10&lt;span style=&quot;background-color: transparent;&quot;&gt;,s5=s5+r5&lt;/span&gt;&lt;span style=&quot;background-color: transparent;&quot;&gt;,s2=s2+r2&lt;/span&gt;&lt;span style=&quot;background-color: transparent;&quot;&gt;,s1=s1+r1&lt;/span&gt;&lt;/div&gt;" style="whiteSpace=wrap;html=1;fontStyle=0;" parent="1" vertex="1">
                    <mxGeometry x="-1558.25" y="1600.02" width="250" height="60" as="geometry"/>
                </mxCell>
                <mxCell id="246" value="" style="edgeStyle=none;html=1;" parent="1" source="247" target="249" edge="1">
                    <mxGeometry relative="1" as="geometry"/>
                </mxCell>
                <mxCell id="247" value="จำนวนเงินของ&lt;div&gt;ท่านไม่พอ&lt;/div&gt;" style="shape=parallelogram;perimeter=parallelogramPerimeter;whiteSpace=wrap;html=1;fixedSize=1;fontStyle=0;" parent="1" vertex="1">
                    <mxGeometry x="-1120" y="1545.0199999999998" width="110" height="29.99" as="geometry"/>
                </mxCell>
                <mxCell id="248" value="" style="edgeStyle=none;html=1;" parent="1" source="249" target="251" edge="1">
                    <mxGeometry relative="1" as="geometry"/>
                </mxCell>
                <mxCell id="249" value="&lt;div&gt;&lt;b&gt;แสดง&lt;/b&gt;&lt;/div&gt;&lt;div&gt;&lt;b&gt;r1000,r500,r100,r50,r20,r10&lt;/b&gt;&lt;/div&gt;&lt;div&gt;&lt;b&gt;,r5,r2,r1&lt;/b&gt;&lt;/div&gt;" style="shape=parallelogram;perimeter=parallelogramPerimeter;whiteSpace=wrap;html=1;fixedSize=1;fontStyle=0;" parent="1" vertex="1">
                    <mxGeometry x="-955" y="1537.5199999999998" width="185" height="44.99" as="geometry"/>
                </mxCell>
                <mxCell id="324" value="" style="edgeStyle=none;html=1;entryX=0.5;entryY=1;entryDx=0;entryDy=0;" parent="1" source="251" target="325" edge="1">
                    <mxGeometry relative="1" as="geometry">
                        <mxPoint x="-862.5" y="1364.995" as="targetPoint"/>
                    </mxGeometry>
                </mxCell>
                <mxCell id="251" value="ทอนเงิน" style="whiteSpace=wrap;html=1;fontStyle=0;" parent="1" vertex="1">
                    <mxGeometry x="-910" y="1420.01" width="95" height="30.03" as="geometry"/>
                </mxCell>
                <mxCell id="308" value="" style="edgeStyle=none;html=1;" parent="1" source="254" target="307" edge="1">
                    <mxGeometry relative="1" as="geometry"/>
                </mxCell>
                <mxCell id="254" value="&lt;span style=&quot;color: rgb(63, 63, 63); font-weight: 700;&quot;&gt;change&lt;/span&gt;=cash-ราคารวม" style="whiteSpace=wrap;html=1;fontStyle=0;" parent="1" vertex="1">
                    <mxGeometry x="-1518.5" y="1700.02" width="170" height="50" as="geometry"/>
                </mxCell>
                <mxCell id="255" value="" style="edgeStyle=none;html=1;" parent="1" source="256" target="258" edge="1">
                    <mxGeometry relative="1" as="geometry"/>
                </mxCell>
                <mxCell id="256" value="b1000=&lt;span style=&quot;color: rgb(63, 63, 63); font-weight: 700;&quot;&gt;change&lt;/span&gt;/1000&lt;div&gt;m=&lt;span style=&quot;color: rgb(63, 63, 63); font-weight: 700; background-color: transparent;&quot;&gt;change&lt;/span&gt;&lt;span style=&quot;background-color: transparent;&quot;&gt;%1000&lt;/span&gt;&lt;/div&gt;" style="whiteSpace=wrap;html=1;fontStyle=0;" parent="1" vertex="1">
                    <mxGeometry x="-1518.5" y="1930" width="170" height="50" as="geometry"/>
                </mxCell>
                <mxCell id="257" value="" style="edgeStyle=none;html=1;" parent="1" source="258" target="260" edge="1">
                    <mxGeometry relative="1" as="geometry"/>
                </mxCell>
                <mxCell id="258" value="b500=m/500&lt;div&gt;m=m%500&lt;/div&gt;" style="whiteSpace=wrap;html=1;fontStyle=0;" parent="1" vertex="1">
                    <mxGeometry x="-1518.5" y="2000" width="170" height="50" as="geometry"/>
                </mxCell>
                <mxCell id="259" value="" style="edgeStyle=none;html=1;" parent="1" source="260" target="262" edge="1">
                    <mxGeometry relative="1" as="geometry"/>
                </mxCell>
                <mxCell id="260" value="b100=m/100&lt;div&gt;m=m%100&lt;/div&gt;" style="whiteSpace=wrap;html=1;fontStyle=0;" parent="1" vertex="1">
                    <mxGeometry x="-1518.5" y="2090" width="170" height="50" as="geometry"/>
                </mxCell>
                <mxCell id="261" value="" style="edgeStyle=none;html=1;" parent="1" source="262" target="264" edge="1">
                    <mxGeometry relative="1" as="geometry"/>
                </mxCell>
                <mxCell id="262" value="b50=m/50&lt;div&gt;m=m%50&lt;/div&gt;" style="whiteSpace=wrap;html=1;fontStyle=0;" parent="1" vertex="1">
                    <mxGeometry x="-1518.5" y="2180" width="170" height="50" as="geometry"/>
                </mxCell>
                <mxCell id="263" value="" style="edgeStyle=none;html=1;" parent="1" source="264" target="266" edge="1">
                    <mxGeometry relative="1" as="geometry"/>
                </mxCell>
                <mxCell id="264" value="b50=m/50&lt;div&gt;m=m%50&lt;/div&gt;" style="whiteSpace=wrap;html=1;fontStyle=0;" parent="1" vertex="1">
                    <mxGeometry x="-1518.5" y="2270" width="170" height="50" as="geometry"/>
                </mxCell>
                <mxCell id="265" value="" style="edgeStyle=none;html=1;" parent="1" source="266" target="268" edge="1">
                    <mxGeometry relative="1" as="geometry"/>
                </mxCell>
                <mxCell id="266" value="b20=m/20&lt;div&gt;m=m%20&lt;/div&gt;" style="whiteSpace=wrap;html=1;fontStyle=0;" parent="1" vertex="1">
                    <mxGeometry x="-1518.5" y="2360" width="170" height="50" as="geometry"/>
                </mxCell>
                <mxCell id="267" value="" style="edgeStyle=none;html=1;" parent="1" source="268" target="270" edge="1">
                    <mxGeometry relative="1" as="geometry"/>
                </mxCell>
                <mxCell id="268" value="c10=m/10&lt;div&gt;m=m%10&lt;/div&gt;" style="whiteSpace=wrap;html=1;fontStyle=0;" parent="1" vertex="1">
                    <mxGeometry x="-1518.5" y="2450" width="170" height="50" as="geometry"/>
                </mxCell>
                <mxCell id="269" value="" style="edgeStyle=none;html=1;" parent="1" source="270" target="272" edge="1">
                    <mxGeometry relative="1" as="geometry"/>
                </mxCell>
                <mxCell id="270" value="c5=m/5&lt;div&gt;m=m%5&lt;/div&gt;" style="whiteSpace=wrap;html=1;fontStyle=0;" parent="1" vertex="1">
                    <mxGeometry x="-1518.5" y="2540" width="170" height="50" as="geometry"/>
                </mxCell>
                <mxCell id="271" value="" style="edgeStyle=none;html=1;" parent="1" source="272" target="274" edge="1">
                    <mxGeometry relative="1" as="geometry"/>
                </mxCell>
                <mxCell id="272" value="c2=m/2&lt;div&gt;m=m%2&lt;/div&gt;" style="whiteSpace=wrap;html=1;fontStyle=0;" parent="1" vertex="1">
                    <mxGeometry x="-1518.5" y="2630" width="170" height="50" as="geometry"/>
                </mxCell>
                <mxCell id="273" value="" style="edgeStyle=none;html=1;" parent="1" source="274" target="278" edge="1">
                    <mxGeometry relative="1" as="geometry"/>
                </mxCell>
                <mxCell id="274" value="c1=m" style="whiteSpace=wrap;html=1;fontStyle=0;" parent="1" vertex="1">
                    <mxGeometry x="-1518.5" y="2710" width="170" height="50" as="geometry"/>
                </mxCell>
                <mxCell id="275" value="" style="edgeStyle=none;html=1;" parent="1" source="276" target="280" edge="1">
                    <mxGeometry relative="1" as="geometry"/>
                </mxCell>
                <mxCell id="276" value="&lt;b&gt;แสดง&lt;/b&gt;&lt;br&gt;&lt;div style=&quot;font-weight: 700;&quot;&gt;&lt;span style=&quot;color: rgb(0, 0, 0);&quot;&gt;b1000,b500,b100,b50&lt;/span&gt;&lt;div&gt;,b20,&lt;span style=&quot;background-color: transparent;&quot;&gt;c10,c5,c2,c1,&lt;/span&gt;&lt;/div&gt;&lt;/div&gt;" style="shape=parallelogram;perimeter=parallelogramPerimeter;whiteSpace=wrap;html=1;fixedSize=1;fontStyle=0;" parent="1" vertex="1">
                    <mxGeometry x="-1523.5" y="2940" width="175" height="60" as="geometry"/>
                </mxCell>
                <mxCell id="277" value="" style="edgeStyle=none;html=1;" parent="1" source="278" target="276" edge="1">
                    <mxGeometry relative="1" as="geometry"/>
                </mxCell>
                <mxCell id="278" value="&lt;div&gt;&lt;br&gt;&lt;/div&gt;&lt;div&gt;&lt;br&gt;&lt;/div&gt;&lt;div&gt;หักเงินออกจากตู้&lt;/div&gt;s1000=s1000-b1000&lt;div&gt;,s500=s500-b500&lt;/div&gt;&lt;div&gt;,s100=s100-b100&lt;/div&gt;&lt;div&gt;,s50=s50-b50,s20=s20-b20,s10=s10-c10,s5=s5-c5,s2=s2-c2,s1=s1-c1&lt;/div&gt;&lt;div&gt;&lt;br&gt;&lt;/div&gt;&lt;div&gt;&lt;br&gt;&lt;/div&gt;" style="whiteSpace=wrap;html=1;fontStyle=0;" parent="1" vertex="1">
                    <mxGeometry x="-1518.5" y="2800" width="170" height="100" as="geometry"/>
                </mxCell>
                <mxCell id="293" value="" style="edgeStyle=none;html=1;" parent="1" source="280" target="292" edge="1">
                    <mxGeometry relative="1" as="geometry"/>
                </mxCell>
                <mxCell id="280" value="ทอนเงินลูกค้า" style="whiteSpace=wrap;html=1;fontStyle=0;" parent="1" vertex="1">
                    <mxGeometry x="-1496" y="3040" width="120" height="60" as="geometry"/>
                </mxCell>
                <mxCell id="290" value="" style="edgeStyle=none;html=1;" parent="1" source="282" target="283" edge="1">
                    <mxGeometry relative="1" as="geometry"/>
                </mxCell>
                <mxCell id="282" value="กำหนดตัวแปร&lt;div&gt;&lt;span style=&quot;color: rgb(0, 0, 0);&quot;&gt;b1000,b500,b100,b50&lt;/span&gt;&lt;div&gt;,b20,&lt;span style=&quot;background-color: transparent;&quot;&gt;c10,c5,c2,c1,cash,change&lt;/span&gt;&lt;span style=&quot;font-family: monospace; font-size: 0px; font-weight: 400; text-align: start; text-wrap-mode: nowrap; background-color: transparent;&quot;&gt;%3CmxGraphModel%3E%3Croot%3E%3CmxCell%20id%3D%220%22%2F%3E%3CmxCell%20id%3D%221%22%20parent%3D%220%22%2F%3E%3CmxCell%20id%3D%222%22%20value%3D%22%26lt%3Bb%26gt%3B%E0%B8%81%E0%B8%B3%E0%B8%AB%E0%B8%99%E0%B8%94%E0%B8%95%E0%B8%B1%E0%B8%A7%E0%B9%81%E0%B8%9B%E0%B8%A3%26lt%3B%2Fb%26gt%3B%26lt%3Bdiv%26gt%3B%26lt%3Bspan%20style%3D%26quot%3Bcolor%3A%20rgb(0%2C%200%2C%200)%3B%26quot%3B%26gt%3B%26lt%3Bb%26gt%3Br1000%2Cr500%2Cr100%2C%26lt%3B%2Fb%26gt%3B%26lt%3B%2Fspan%26gt%3B%26lt%3Bb%20style%3D%26quot%3Bbackground-color%3A%20transparent%3B%26quot%3B%26gt%3Br50%26lt%3B%2Fb%26gt%3B%26lt%3Bb%20style%3D%26quot%3Bbackground-color%3A%20transparent%3B%26quot%3B%26gt%3B%2Cr20%2Cr%26lt%3Bspan%20style%3D%26quot%3Bbackground-color%3A%20transparent%3B%26quot%3B%26gt%3B10%2C%26lt%3B%2Fspan%26gt%3B%26lt%3B%2Fb%26gt%3B%26lt%3B%2Fdiv%26gt%3B%26lt%3Bdiv%26gt%3B%26lt%3Bdiv%26gt%3B%26lt%3Bspan%20style%3D%26quot%3Bbackground-color%3A%20transparent%3B%26quot%3B%26gt%3B%26lt%3Bb%26gt%3Br5%2Cr2%2Cr1%26lt%3B%2Fb%26gt%3B%26lt%3B%2Fspan%26gt%3B%26lt%3B%2Fdiv%26gt%3B%26lt%3B%2Fdiv%26gt%3B%22%20style%3D%22whiteSpace%3Dwrap%3Bhtml%3D1%3BfontStyle%3D0%22%20vertex%3D%221%22%20parent%3D%221%22%3E%3CmxGeometry%20x%3D%22-1299.5%22%20y%3D%221548%22%20width%3D%22180%22%20height%3D%2245.39%22%20as%3D%22geometry%22%2F%3E%3C%2FmxCell%3E%3C%2Froot%3E%3C%2FmxGraphModel%3E&lt;/span&gt;&lt;span style=&quot;font-family: monospace; font-size: 0px; font-weight: 400; text-align: start; text-wrap-mode: nowrap; background-color: transparent;&quot;&gt;%3CmxGraphModel%3E%3Croot%3E%3CmxCell%20id%3D%220%22%2F%3E%3CmxCell%20id%3D%221%22%20parent%3D%220%22%2F%3E%3CmxCell%20id%3D%222%22%20value%3D%22%26lt%3Bb%26gt%3B%E0%B8%81%E0%B8%B3%E0%B8%AB%E0%B8%99%E0%B8%94%E0%B8%95%E0%B8%B1%E0%B8%A7%E0%B9%81%E0%B8%9B%E0%B8%A3%26lt%3B%2Fb%26gt%3B%26lt%3Bdiv%26gt%3B%26lt%3Bspan%20style%3D%26quot%3Bcolor%3A%20rgb(0%2C%200%2C%200)%3B%26quot%3B%26gt%3B%26lt%3Bb%26gt%3Br1000%2Cr500%2Cr100%2C%26lt%3B%2Fb%26gt%3B%26lt%3B%2Fspan%26gt%3B%26lt%3Bb%20style%3D%26quot%3Bbackground-color%3A%20transparent%3B%26quot%3B%26gt%3Br50%26lt%3B%2Fb%26gt%3B%26lt%3Bb%20style%3D%26quot%3Bbackground-color%3A%20transparent%3B%26quot%3B%26gt%3B%2Cr20%2Cr%26lt%3Bspan%20style%3D%26quot%3Bbackground-color%3A%20transparent%3B%26quot%3B%26gt%3B10%2C%26lt%3B%2Fspan%26gt%3B%26lt%3B%2Fb%26gt%3B%26lt%3B%2Fdiv%26gt%3B%26lt%3Bdiv%26gt%3B%26lt%3Bdiv%26gt%3B%26lt%3Bspan%20style%3D%26quot%3Bbackground-color%3A%20transparent%3B%26quot%3B%26gt%3B%26lt%3Bb%26gt%3Br5%2Cr2%2Cr1%26lt%3B%2Fb%26gt%3B%26lt%3B%2Fspan%26gt%3B%26lt%3B%2Fdiv%26gt%3B%26lt%3B%2Fdiv%26gt%3B%22%20style%3D%22whiteSpace%3Dwrap%3Bhtml%3D1%3BfontStyle%3D0%22%20vertex%3D%221%22%20parent%3D%221%22%3E%3CmxGeometry%20x%3D%22-1299.5%22%20y%3D%221548%22%20width%3D%22180%22%20height%3D%2245.39%22%20as%3D%22geometry%22%2F%3E%3C%2FmxCell%3E%3C%2Froot%3E%3C%2FmxGraphModel%3E&lt;/span&gt;&lt;span style=&quot;font-family: monospace; font-size: 0px; font-weight: 400; text-align: start; text-wrap-mode: nowrap; background-color: transparent;&quot;&gt;%3CmxGraphModel%3E%3Croot%3E%3CmxCell%20id%3D%220%22%2F%3E%3CmxCell%20id%3D%221%22%20parent%3D%220%22%2F%3E%3CmxCell%20id%3D%222%22%20value%3D%22%26lt%3Bb%26gt%3B%E0%B8%81%E0%B8%B3%E0%B8%AB%E0%B8%99%E0%B8%94%E0%B8%95%E0%B8%B1%E0%B8%A7%E0%B9%81%E0%B8%9B%E0%B8%A3%26lt%3B%2Fb%26gt%3B%26lt%3Bdiv%26gt%3B%26lt%3Bspan%20style%3D%26quot%3Bcolor%3A%20rgb(0%2C%200%2C%200)%3B%26quot%3B%26gt%3B%26lt%3Bb%26gt%3Br1000%2Cr500%2Cr100%2C%26lt%3B%2Fb%26gt%3B%26lt%3B%2Fspan%26gt%3B%26lt%3Bb%20style%3D%26quot%3Bbackground-color%3A%20transparent%3B%26quot%3B%26gt%3Br50%26lt%3B%2Fb%26gt%3B%26lt%3Bb%20style%3D%26quot%3Bbackground-color%3A%20transparent%3B%26quot%3B%26gt%3B%2Cr20%2Cr%26lt%3Bspan%20style%3D%26quot%3Bbackground-color%3A%20transparent%3B%26quot%3B%26gt%3B10%2C%26lt%3B%2Fspan%26gt%3B%26lt%3B%2Fb%26gt%3B%26lt%3B%2Fdiv%26gt%3B%26lt%3Bdiv%26gt%3B%26lt%3Bdiv%26gt%3B%26lt%3Bspan%20style%3D%26quot%3Bbackground-color%3A%20transparent%3B%26quot%3B%26gt%3B%26lt%3Bb%26gt%3Br5%2Cr2%2Cr1%26lt%3B%2Fb%26gt%3B%26lt%3B%2Fspan%26gt%3B%26lt%3B%2Fdiv%26gt%3B%26lt%3B%2Fdiv%26gt%3B%22%20style%3D%22whiteSpace%3Dwrap%3Bhtml%3D1%3BfontStyle%3D0%22%20vertex%3D%221%22%20parent%3D%221%22%3E%3CmxGeometry%20x%3D%22-1299.5%22%20y%3D%221548%22%20width%3D%22180%22%20height%3D%2245.39%22%20as%3D%22geometry%22%2F%3E%3C%2FmxCell%3E%3C%2Froot%3E%3C%2FmxGraphModel%3E&lt;/span&gt;&lt;span style=&quot;background-color: transparent; font-family: monospace; font-size: 0px; font-weight: 400; text-align: start; text-wrap-mode: nowrap;&quot;&gt;%3CmxGraphModel%3E%3Croot%3E%3CmxCell%20id%3D%220%22%2F%3E%3CmxCell%20id%3D%221%22%20parent%3D%220%22%2F%3E%3CmxCell%20id%3D%222%22%20value%3D%22%26lt%3Bb%26gt%3B%E0%B8%81%E0%B8%B3%E0%B8%AB%E0%B8%99%E0%B8%94%E0%B8%95%E0%B8%B1%E0%B8%A7%E0%B9%81%E0%B8%9B%E0%B8%A3%26lt%3B%2Fb%26gt%3B%26lt%3Bdiv%26gt%3B%26lt%3Bspan%20style%3D%26quot%3Bcolor%3A%20rgb(0%2C%200%2C%200)%3B%26quot%3B%26gt%3B%26lt%3Bb%26gt%3Br1000%2Cr500%2Cr100%2C%26lt%3B%2Fb%26gt%3B%26lt%3B%2Fspan%26gt%3B%26lt%3Bb%20style%3D%26quot%3Bbackground-color%3A%20transparent%3B%26quot%3B%26gt%3Br50%26lt%3B%2Fb%26gt%3B%26lt%3Bb%20style%3D%26quot%3Bbackground-color%3A%20transparent%3B%26quot%3B%26gt%3B%2Cr20%2Cr%26lt%3Bspan%20style%3D%26quot%3Bbackground-color%3A%20transparent%3B%26quot%3B%26gt%3B10%2C%26lt%3B%2Fspan%26gt%3B%26lt%3B%2Fb%26gt%3B%26lt%3B%2Fdiv%26gt%3B%26lt%3Bdiv%26gt%3B%26lt%3Bdiv%26gt%3B%26lt%3Bspan%20style%3D%26quot%3Bbackground-color%3A%20transparent%3B%26quot%3B%26gt%3B%26lt%3Bb%26gt%3Br5%2Cr2%2Cr1%26lt%3B%2Fb%26gt%3B%26lt%3B%2Fspan%26gt%3B%26lt%3B%2Fdiv%26gt%3B%26lt%3B%2Fdiv%26gt%3B%22%20style%3D%22whiteSpace%3Dwrap%3Bhtml%3D1%3BfontStyle%3D0%22%20vertex%3D%221%22%20parent%3D%221%22%3E%3CmxGeometry%20x%3D%22-1299.5%22%20y%3D%221548%22%20width%3D%22180%22%20height%3D%2245.39%22%20as%3D%22geometry%22%2F%3E%3C%2FmxCell%3E%3C%2Froot%3E%3C%2FmxGraphModel%3E&lt;/span&gt;&lt;/div&gt;&lt;/div&gt;" style="whiteSpace=wrap;html=1;fontStyle=1" parent="1" vertex="1">
                    <mxGeometry x="-1535" y="-1550" width="180" height="70" as="geometry"/>
                </mxCell>
                <mxCell id="291" value="" style="edgeStyle=none;html=1;" parent="1" source="283" target="of-Or63fq2WvLNfduHY4-39" edge="1">
                    <mxGeometry relative="1" as="geometry"/>
                </mxCell>
                <mxCell id="283" value="&lt;b&gt;กำหนดตัวแปร&lt;/b&gt;&lt;div&gt;&lt;span style=&quot;color: rgb(0, 0, 0);&quot;&gt;&lt;b&gt;s1000=20,s500=20,s100=20,&lt;/b&gt;&lt;/span&gt;&lt;/div&gt;&lt;div&gt;&lt;span style=&quot;color: rgb(0, 0, 0);&quot;&gt;&lt;b&gt;s50=20&lt;/b&gt;&lt;/span&gt;&lt;div&gt;&lt;b&gt;,s20=20,s&lt;span style=&quot;background-color: transparent;&quot;&gt;10=20,&lt;/span&gt;&lt;/b&gt;&lt;/div&gt;&lt;div&gt;&lt;span style=&quot;background-color: transparent;&quot;&gt;&lt;b&gt;s5=20,s2=20,s1=100,ยอดเงิน&lt;/b&gt;&lt;/span&gt;&lt;/div&gt;&lt;/div&gt;" style="whiteSpace=wrap;html=1;fontStyle=0" parent="1" vertex="1">
                    <mxGeometry x="-1535" y="-1420" width="180" height="75.39" as="geometry"/>
                </mxCell>
                <mxCell id="289" value="" style="edgeStyle=none;html=1;" parent="1" source="284" target="282" edge="1">
                    <mxGeometry relative="1" as="geometry"/>
                </mxCell>
                <mxCell id="284" value="&lt;b&gt;กำหนดตัวแปร&lt;/b&gt;&lt;div&gt;&lt;span style=&quot;color: rgb(0, 0, 0);&quot;&gt;&lt;b&gt;r1000,r500,r100,&lt;/b&gt;&lt;/span&gt;&lt;b style=&quot;background-color: transparent;&quot;&gt;r50&lt;/b&gt;&lt;b style=&quot;background-color: transparent;&quot;&gt;,r20,r&lt;span style=&quot;background-color: transparent;&quot;&gt;10,&lt;/span&gt;&lt;/b&gt;&lt;/div&gt;&lt;div&gt;&lt;div&gt;&lt;span style=&quot;background-color: transparent;&quot;&gt;&lt;b&gt;r5,r2,r1&lt;/b&gt;&lt;/span&gt;&lt;/div&gt;&lt;/div&gt;" style="whiteSpace=wrap;html=1;fontStyle=0" parent="1" vertex="1">
                    <mxGeometry x="-1535" y="-1632.69" width="180" height="45.39" as="geometry"/>
                </mxCell>
                <mxCell id="334" value="" style="edgeStyle=none;html=1;" parent="1" source="292" target="333" edge="1">
                    <mxGeometry relative="1" as="geometry"/>
                </mxCell>
                <mxCell id="292" value="ทานทำรายการสำเร็จ" style="shape=parallelogram;perimeter=parallelogramPerimeter;whiteSpace=wrap;html=1;fixedSize=1;fontStyle=0;" parent="1" vertex="1">
                    <mxGeometry x="-1502.5" y="3150" width="134.5" height="60" as="geometry"/>
                </mxCell>
                <mxCell id="301" value="" style="edgeStyle=orthogonalEdgeStyle;html=1;entryX=0.5;entryY=0;entryDx=0;entryDy=0;exitX=0;exitY=0.5;exitDx=0;exitDy=0;rounded=0;curved=0;" parent="1" source="243" target="245" edge="1">
                    <mxGeometry relative="1" as="geometry">
                        <mxPoint x="-1364" y="1610.005" as="sourcePoint"/>
                        <mxPoint x="-1341" y="1719.995" as="targetPoint"/>
                    </mxGeometry>
                </mxCell>
                <mxCell id="322" value="ใช่" style="edgeLabel;html=1;align=center;verticalAlign=middle;resizable=0;points=[];" parent="301" vertex="1" connectable="0">
                    <mxGeometry x="-0.0762" relative="1" as="geometry">
                        <mxPoint as="offset"/>
                    </mxGeometry>
                </mxCell>
                <mxCell id="309" value="" style="edgeStyle=none;html=1;" parent="1" source="307" target="256" edge="1">
                    <mxGeometry relative="1" as="geometry"/>
                </mxCell>
                <mxCell id="310" value="ไม่" style="edgeLabel;html=1;align=center;verticalAlign=middle;resizable=0;points=[];" parent="309" vertex="1" connectable="0">
                    <mxGeometry x="-0.1455" y="-1" relative="1" as="geometry">
                        <mxPoint as="offset"/>
                    </mxGeometry>
                </mxCell>
                <mxCell id="312" value="" style="edgeStyle=none;html=1;exitX=0;exitY=0.5;exitDx=0;exitDy=0;" parent="1" source="307" edge="1">
                    <mxGeometry relative="1" as="geometry">
                        <mxPoint x="-1469" y="1824.85" as="sourcePoint"/>
                        <mxPoint x="-1648" y="1830" as="targetPoint"/>
                    </mxGeometry>
                </mxCell>
                <mxCell id="313" value="ใช่" style="edgeLabel;html=1;align=center;verticalAlign=middle;resizable=0;points=[];" parent="312" vertex="1" connectable="0">
                    <mxGeometry x="-0.2647" relative="1" as="geometry">
                        <mxPoint as="offset"/>
                    </mxGeometry>
                </mxCell>
                <mxCell id="307" value="change=ราคารวม" style="rhombus;whiteSpace=wrap;html=1;fontStyle=0;" parent="1" vertex="1">
                    <mxGeometry x="-1486.5" y="1795" width="105.5" height="70" as="geometry"/>
                </mxCell>
                <mxCell id="315" value="" style="edgeStyle=none;html=1;" parent="1" edge="1">
                    <mxGeometry relative="1" as="geometry">
                        <mxPoint x="-1648" y="1830" as="sourcePoint"/>
                        <mxPoint x="-1646" y="3119.999999999999" as="targetPoint"/>
                    </mxGeometry>
                </mxCell>
                <mxCell id="317" value="" style="edgeStyle=none;html=1;" parent="1" edge="1">
                    <mxGeometry relative="1" as="geometry">
                        <mxPoint x="-1646" y="3119.999999999999" as="sourcePoint"/>
                        <mxPoint x="-1438" y="3120" as="targetPoint"/>
                    </mxGeometry>
                </mxCell>
                <mxCell id="318" value="&lt;font face=&quot;Sarabun&quot;&gt;จบ&lt;/font&gt;" style="ellipse;whiteSpace=wrap;html=1;fontStyle=0" parent="1" vertex="1">
                    <mxGeometry x="-1502.5" y="3660" width="130" height="30" as="geometry"/>
                </mxCell>
                <mxCell id="327" value="" style="edgeStyle=none;html=1;" parent="1" source="325" edge="1">
                    <mxGeometry relative="1" as="geometry">
                        <mxPoint x="-1210" y="1320" as="targetPoint"/>
                    </mxGeometry>
                </mxCell>
                <mxCell id="328" value="ใช่" style="edgeLabel;html=1;align=center;verticalAlign=middle;resizable=0;points=[];" parent="327" vertex="1" connectable="0">
                    <mxGeometry x="-0.4959" y="2" relative="1" as="geometry">
                        <mxPoint as="offset"/>
                    </mxGeometry>
                </mxCell>
                <mxCell id="330" value="" style="edgeStyle=orthogonalEdgeStyle;html=1;rounded=0;curved=0;" parent="1" edge="1">
                    <mxGeometry relative="1" as="geometry">
                        <mxPoint x="-827.5100000000002" y="1320" as="sourcePoint"/>
                        <mxPoint x="-1440" y="3640" as="targetPoint"/>
                        <Array as="points">
                            <mxPoint x="-680" y="1320"/>
                            <mxPoint x="-680" y="3640"/>
                        </Array>
                    </mxGeometry>
                </mxCell>
                <mxCell id="331" value="ไม่" style="edgeLabel;html=1;align=center;verticalAlign=middle;resizable=0;points=[];" parent="330" vertex="1" connectable="0">
                    <mxGeometry x="-0.9197" y="3" relative="1" as="geometry">
                        <mxPoint x="-1" as="offset"/>
                    </mxGeometry>
                </mxCell>
                <mxCell id="325" value="ชำระเงินหรือไม่" style="rhombus;whiteSpace=wrap;html=1;fontSize=11;" parent="1" vertex="1">
                    <mxGeometry x="-902.5" y="1280.01" width="80" height="80" as="geometry"/>
                </mxCell>
                <mxCell id="337" value="" style="edgeStyle=none;html=1;" parent="1" source="333" target="336" edge="1">
                    <mxGeometry relative="1" as="geometry"/>
                </mxCell>
                <mxCell id="333" value="ยอดเงิน=(s1000*1000)+(s500*500)+(s100*100)+(s50*50)+(s20*20)+(c10*10)+(c5*5)+(c2*2)+(c1)" style="whiteSpace=wrap;html=1;fontStyle=0;" parent="1" vertex="1">
                    <mxGeometry x="-1540" y="3240" width="207.5" height="60" as="geometry"/>
                </mxCell>
                <mxCell id="339" value="" style="edgeStyle=none;html=1;entryX=0.5;entryY=0;entryDx=0;entryDy=0;" parent="1" source="336" target="340" edge="1">
                    <mxGeometry relative="1" as="geometry">
                        <mxPoint x="-1439" y="3430" as="targetPoint"/>
                    </mxGeometry>
                </mxCell>
                <mxCell id="336" value="แสดง&lt;div&gt;ยออดเงิน&lt;/div&gt;" style="shape=parallelogram;perimeter=parallelogramPerimeter;whiteSpace=wrap;html=1;fixedSize=1;fontStyle=0;" parent="1" vertex="1">
                    <mxGeometry x="-1507" y="3330" width="136.75" height="60" as="geometry"/>
                </mxCell>
                <mxCell id="341" value="" style="edgeStyle=none;html=1;" parent="1" source="340" target="318" edge="1">
                    <mxGeometry relative="1" as="geometry"/>
                </mxCell>
                <mxCell id="340" value="แสดงจำนวนสินค้าที่เหลือ&lt;div&gt;&lt;div style=&quot;&quot;&gt;&lt;span style=&quot;background-color: transparent; color: light-dark(rgb(0, 0, 0), rgb(255, 255, 255));&quot;&gt;เมล็ดทานตะวัน:a ชิ้น&lt;/span&gt;&lt;/div&gt;&lt;div style=&quot;&quot;&gt;&amp;nbsp;ถั่วแปบ:b ชิ้น&lt;/div&gt;&lt;div style=&quot;&quot;&gt;&amp;nbsp;จิ้นส้มหมก:c ชิ้น&lt;/div&gt;&lt;div style=&quot;&quot;&gt;&lt;span style=&quot;background-color: transparent; color: light-dark(rgb(0, 0, 0), rgb(255, 255, 255));&quot;&gt;&amp;nbsp; &amp;nbsp; &amp;nbsp; &amp;nbsp; โค้กกระป๋อง:d ชิ้น&amp;nbsp; &amp;nbsp; &amp;nbsp; &amp;nbsp; &amp;nbsp; &amp;nbsp;&lt;/span&gt;&lt;/div&gt;&lt;div style=&quot;&quot;&gt;&lt;span style=&quot;background-color: transparent; color: light-dark(rgb(0, 0, 0), rgb(255, 255, 255));&quot;&gt;น้ำเขียวกระป๋อง:e ชิ้น&amp;nbsp; &amp;nbsp;&lt;/span&gt;&lt;/div&gt;&lt;div style=&quot;&quot;&gt;&lt;span style=&quot;background-color: transparent; color: light-dark(rgb(0, 0, 0), rgb(255, 255, 255));&quot;&gt;&amp;nbsp;อเมริกาโน่:f ชิ้น&lt;/span&gt;&lt;/div&gt;&lt;div style=&quot;&quot;&gt;&lt;span style=&quot;background-color: transparent; color: light-dark(rgb(0, 0, 0), rgb(255, 255, 255));&quot;&gt;&amp;nbsp; &amp;nbsp; &amp;nbsp; &amp;nbsp; ลาเต้หวานเจี๊ยบ: g ชิ้น&amp;nbsp;&amp;nbsp;&lt;/span&gt;&lt;span style=&quot;background-color: transparent; color: light-dark(rgb(0, 0, 0), rgb(255, 255, 255));&quot;&gt;&amp;nbsp; &amp;nbsp; &amp;nbsp; &amp;nbsp; &amp;nbsp; &amp;nbsp;&lt;/span&gt;&lt;/div&gt;&lt;/div&gt;" style="shape=parallelogram;perimeter=parallelogramPerimeter;whiteSpace=wrap;html=1;fixedSize=1;align=center;" parent="1" vertex="1">
                    <mxGeometry x="-1546.13" y="3440" width="215" height="120" as="geometry"/>
                </mxCell>
            </root>
        </mxGraphModel>
    </diagram>
</mxfile>